<?xml version="1.0" encoding="UTF-8"?>
<svg width="24px" height="24px" viewBox="0 0 24 24" version="1.1" xmlns="http://www.w3.org/2000/svg" xmlns:xlink="http://www.w3.org/1999/xlink">
    <title>ic_data_cheack_dark</title>
    <defs>
        <linearGradient x1="50%" y1="0%" x2="50%" y2="100%" id="linearGradient-1">
            <stop stop-color="#FE7E9D" offset="0%"></stop>
            <stop stop-color="#FE2B5E" offset="100%"></stop>
        </linearGradient>
        <linearGradient x1="50%" y1="0%" x2="50%" y2="100%" id="linearGradient-2">
            <stop stop-color="#FE7E9D" offset="0%"></stop>
            <stop stop-color="#FE2B5E" offset="100%"></stop>
        </linearGradient>
    </defs>
    <g id="ic_data_cheack_dark" stroke="none" stroke-width="1" fill="none" fill-rule="evenodd">
        <path d="M8.93559811,1 C12.9363837,5.67382227 15.4031722,9.22627225 16.3359635,11.65735 C13.1520737,11.9054897 10.6457796,14.5694167 10.6457796,17.819081 C10.6457796,19.3443594 11.1979247,20.7405978 12.1131274,21.8185921 C11.1409316,22.2450971 10.0658596,22.4815375 8.93559811,22.4815375 C4.55288829,22.4815375 1,18.9264585 1,14.5410464 C1,13.689121 1.13407995,12.8685309 1.38227659,12.0992518 C1.4048581,12.0225917 1.43054234,11.9426929 1.46010677,11.8599843 C2.33036243,9.42538227 4.82219287,5.8053875 8.93559811,1 Z" id="形状结合" fill="url(#linearGradient-1)"></path>
        <path d="M16.8228898,13.2786652 C19.328947,13.2786652 21.3605077,15.3114786 21.3605077,17.819081 C21.3605077,20.3266834 19.328947,22.3594968 16.8228898,22.3594968 C14.3168326,22.3594968 12.2852719,20.3266834 12.2852719,17.819081 C12.2852719,15.3114786 14.3168326,13.2786652 16.8228898,13.2786652 Z M18.6512273,15.0869964 C18.2702461,14.8301796 17.7532087,14.9308349 17.4967861,15.3120818 L17.4967861,15.3120818 L16.1322739,17.3363016 C15.8759553,17.7173947 15.9764133,18.2342063 16.3568278,18.4915311 L16.3568278,18.4915311 L16.3570937,18.4917106 L16.4550722,18.5491718 C16.8225663,18.7304628 17.2766091,18.6167614 17.5116632,18.2672851 L17.5116632,18.2672851 L18.8761753,16.2430652 C19.1324939,15.8619721 19.0320359,15.3451605 18.6516215,15.0878357 L18.6516215,15.0878357 L18.6513911,15.0871785 Z" id="形状结合" fill="url(#linearGradient-2)"></path>
    </g>
</svg>