<?xml version="1.0" encoding="UTF-8"?>
<svg width="24px" height="24px" viewBox="0 0 24 24" version="1.1" xmlns="http://www.w3.org/2000/svg" xmlns:xlink="http://www.w3.org/1999/xlink">
    <title>体温手动输入-无底框dark</title>
    <defs>
        <linearGradient x1="50%" y1="96.8607585%" x2="50%" y2="0%" id="linearGradient-1">
            <stop stop-color="#00A5AD" offset="0%"></stop>
            <stop stop-color="#57D3D9" offset="100%"></stop>
        </linearGradient>
        <path d="M11.5063527,0 C13.0662799,0 13.6531017,0.161668376 14.2236435,0.465668158 L14.2608395,0.485695825 C14.8157762,0.787526288 15.2569805,1.22373149 15.5669329,1.77649418 L15.6124392,1.86028054 C15.9240618,2.45287313 16.0900135,3.04066629 16.0900135,4.66160945 L16.0900135,15.3383905 L16.0891136,15.539787 C16.0759259,16.97671 15.9180521,17.5468747 15.632132,18.1018909 L15.6124392,18.1397195 C15.3156558,18.7040934 14.8867445,19.1528006 14.3432248,19.468024 L14.2608395,19.5143042 C13.6781558,19.8312262 13.1001914,20 11.5063527,20 L4.58366083,20 L4.38563197,19.9990848 C2.97273636,19.9856728 2.41210562,19.8251142 1.86637004,19.5343318 L1.82917405,19.5143042 C1.27423727,19.2124737 0.833033015,18.7762685 0.523080597,18.2235058 L0.477574312,18.1397195 C0.165951704,17.5471269 -8.81072992e-13,16.9593337 -8.81072992e-13,15.3383905 L-8.81072992e-13,4.66160945 C-8.81072992e-13,3.07515444 0.158965055,2.47835331 0.457881536,1.89810908 L0.477574312,1.86028054 C0.774357749,1.29590664 1.20326899,0.847199372 1.74678872,0.531975978 L1.82917405,0.485695825 C2.41185767,0.168773838 2.9898221,0 4.58366083,0 L11.5063527,0 Z M8.25,8 L3.75,8 C3.33578644,8 3,8.33578644 3,8.75 C3,9.16421356 3.33578644,9.5 3.75,9.5 L3.75,9.5 L8.25,9.5 C8.66421356,9.5 9,9.16421356 9,8.75 C9,8.33578644 8.66421356,8 8.25,8 L8.25,8 Z M11.25,4 L3.75,4 C3.33578644,4 3,4.33578644 3,4.75 C3,5.12969577 3.28215388,5.44349096 3.64822944,5.49315338 L3.75,5.5 L11.25,5.5 C11.6642136,5.5 12,5.16421356 12,4.75 C12,4.33578644 11.6642136,4 11.25,4 Z" id="path-2"></path>
        <linearGradient x1="49.6814193%" y1="2.98238934%" x2="49.9933785%" y2="92.1563844%" id="linearGradient-4">
            <stop stop-color="#A8EBED" offset="0%"></stop>
            <stop stop-color="#78DFE3" offset="100%"></stop>
        </linearGradient>
    </defs>
    <g id="页面-1" stroke="none" stroke-width="1" fill="none" fill-rule="evenodd">
        <g id="画板备份-9" transform="translate(-51.000000, -358.000000)">
            <g id="BottomNavigationBar/item/actived备份-2" transform="translate(51.000000, 358.000000)">
                <g id="IC/ic_feedback备份" transform="translate(3.000000, 2.000000)">
                    <mask id="mask-3" fill="white">
                        <use xlink:href="#path-2"></use>
                    </mask>
                    <use id="形状结合" fill="url(#linearGradient-1)" xlink:href="#path-2"></use>
                    <path d="M13.9541716,14.1732558 C13.9541716,14.6327858 13.8921172,15.0902114 13.7696905,15.533133 L13.1257501,17.8628135 C13.0694222,18.0665997 12.858558,18.1861382 12.6547718,18.1298102 C12.5274676,18.0946224 12.4272933,17.9962976 12.3897395,17.8696712 L11.7095244,15.5760736 C11.5698071,15.1049652 11.4988503,14.6161501 11.4988503,14.1247603 L11.4995378,4.34338015 C11.4995378,3.66555174 12.0490263,3.11606324 12.7268547,3.11606324 C13.4046831,3.11606324 13.9541716,3.66555174 13.9541716,4.34338015 L13.9541716,14.1732558 Z" id="形状结合" fill="url(#linearGradient-4)" transform="translate(12.726511, 10.617669) rotate(-315.000000) translate(-12.726511, -10.617669) "></path>
                </g>
            </g>
        </g>
    </g>
</svg>