<?xml version="1.0" encoding="UTF-8"?>
<svg width="12px" height="12px" viewBox="0 0 12 12" version="1.1" xmlns="http://www.w3.org/2000/svg" xmlns:xlink="http://www.w3.org/1999/xlink">
    <title>Public/ic_public_contacts_group备份</title>
    <defs>
        <path d="M5.5,1.25 C6.94974747,1.25 8.125,2.42525253 8.125,3.875 C8.125,4.75823077 7.68879077,5.53957941 7.02005466,6.01536356 C8.75741585,6.63665744 10,8.29821818 10,10.25 C10,10.4571068 9.83210678,10.625 9.625,10.625 C9.41789322,10.625 9.25,10.4571068 9.25,10.25 C9.25,8.17893219 7.57106781,6.5 5.5,6.5 C3.42893219,6.5 1.75,8.17893219 1.75,10.25 C1.75,10.4312184 1.62145675,10.582414 1.45057558,10.6173813 L1.375,10.625 L1.375,10.625 C1.16789322,10.625 1,10.4571068 1,10.25 C1,8.29821818 2.24258415,6.63665744 3.9798271,6.01324312 C3.31120923,5.53957941 2.875,4.75823077 2.875,3.875 C2.875,2.42525253 4.05025253,1.25 5.5,1.25 Z M8.41367156,5.99554571 L8.45008928,5.99993491 L8.45008928,5.99993491 C10.0575847,6.5529078 10.7622488,7.87181413 10.9926471,8.38888889 C11.0989254,8.62740573 11.1849896,8.94251374 11.2508397,9.33421292 C11.3401811,9.86564849 10.9926495,10.3695715 10.4697675,10.4787585 C10.4895032,10.4057549 10.5,10.3291033 10.5,10.25 L10.4995987,10.186279 C10.4791639,8.56427664 9.67960242,7.09613412 8.41859176,6.18902442 L8.40043148,6.1756961 L8.40043148,6.1756961 L8.36935037,6.15254279 C8.33069965,6.12364927 8.32278988,6.06889385 8.35168341,6.03024314 C8.36683882,6.00996982 8.38956607,5.99776815 8.41367156,5.99554571 Z M5.5,2 C4.46446609,2 3.625,2.83946609 3.625,3.875 C3.625,4.91053391 4.46446609,5.75 5.5,5.75 C6.53553391,5.75 7.375,4.91053391 7.375,3.875 C7.375,2.83946609 6.53553391,2 5.5,2 Z M7.19669137,1.13302842 C8.41634842,1.23301647 9.375,2.2545557 9.375,3.5 C9.375,4.31733101 8.96213494,5.03823222 8.3335818,5.46552667 L8.31947986,5.47490985 C8.29109698,5.49362445 8.25291692,5.48578675 8.23420233,5.45740387 C8.22577879,5.44462859 8.22256027,5.42943629 8.22465784,5.41478482 L8.23180517,5.39358297 L8.23180517,5.39358297 C8.4852507,4.9381793 8.625,4.41819007 8.625,3.875 C8.625,2.77075376 8.05225986,1.80027816 7.18763786,1.24441429 L7.18137632,1.24065154 L7.16543979,1.23116973 C7.14032747,1.21629474 7.13202848,1.18387862 7.14690346,1.15876631 C7.15720882,1.14136855 7.17653813,1.13137625 7.19669137,1.13302842 Z" id="path-1"></path>
    </defs>
    <g id="页面-1" stroke="none" stroke-width="1" fill="none" fill-rule="evenodd">
        <g id="标签" transform="translate(-99.000000, -193.000000)">
            <g id="Public/ic_public_contacts_group备份" transform="translate(99.000000, 193.000000)">
                <mask id="mask-2" fill="white">
                    <use xlink:href="#path-1"></use>
                </mask>
                <g id="蒙版" fill-rule="nonzero"></g>
                <g id="编组" mask="url(#mask-2)" fill="#FFFFFF" fill-opacity="0.6">
                    <g id="Symbol/color-light/colorPrimary">
                        <rect id="color/#000000" x="0" y="0" width="12" height="12"></rect>
                    </g>
                </g>
            </g>
        </g>
    </g>
</svg>