<?xml version="1.0" encoding="UTF-8"?>
<svg width="12px" height="11px" viewBox="0 0 12 11" version="1.1" xmlns="http://www.w3.org/2000/svg" xmlns:xlink="http://www.w3.org/1999/xlink">
    <title>ic_triangle_dark</title>
    <g id="页面-1" stroke="none" stroke-width="1" fill="none" fill-rule="evenodd">
        <path d="M5.68180195,2.27261364 C6.28613742,2.18628 6.92538969,2.3443639 7.43856007,2.76986514 L7.43856007,2.76986514 L10.8,7.15 C11.1727922,7.64705627 11.3088203,8.24816017 11.2273864,8.81819805 C11.1459524,9.38823593 10.8470563,9.92720779 10.35,10.3 C9.96053362,10.5920998 9.48683298,10.75 9,10.75 L9,10.75 L3,10.75 C2.37867966,10.75 1.81617966,10.4981602 1.40900974,10.0909903 C1.00183983,9.68382034 0.75,9.12132034 0.75,8.5 C0.75,8.01316702 0.907900212,7.53946638 1.2,7.15 L1.2,7.15 L4.2,3.15 C4.57279221,2.65294373 5.11176407,2.35404762 5.68180195,2.27261364 Z" id="三角形" stroke="#202224" stroke-width="1.5" fill="#999999" transform="translate(6.000000, 6.000000) scale(1, -1) translate(-6.000000, -6.000000) "></path>
    </g>
</svg>