<?xml version="1.0" encoding="UTF-8"?>
<svg width="24px" height="24px" viewBox="0 0 24 24" version="1.1" xmlns="http://www.w3.org/2000/svg" xmlns:xlink="http://www.w3.org/1999/xlink">
    <title>测量压力-无底框dark</title>
    <defs>
        <linearGradient x1="50%" y1="96.8607585%" x2="50%" y2="0%" id="linearGradient-1">
            <stop stop-color="#00A5AD" offset="0%"></stop>
            <stop stop-color="#57D3D9" offset="100%"></stop>
        </linearGradient>
        <path d="M12,1.5 C13.6568542,1.5 15,2.84314575 15,4.5 L15.000963,11.3032504 C16.793836,12.3408156 18,14.2795505 18,16.5 C18,19.8137085 15.3137085,22.5 12,22.5 C8.6862915,22.5 6,19.8137085 6,16.5 C6,14.2791367 7.20661355,12.340093 9.00003939,11.3026704 L9,4.5 C9,2.84314575 10.3431458,1.5 12,1.5 Z M12,6.59967041 C11.6203042,6.59967041 11.306509,6.88182429 11.2568466,7.24789985 L11.25,7.34967041 L11.2500152,14.6453731 C10.5170495,14.942063 10,15.6606498 10,16.5 C10,17.6045695 10.8954305,18.5 12,18.5 C13.1045695,18.5 14,17.6045695 14,16.5 C14,15.7169642 13.5500036,15.0390307 12.8945083,14.7106969 L12.7509888,14.6457798 L12.75,7.34967041 L12.7431534,7.24789985 C12.693491,6.88182429 12.3796958,6.59967041 12,6.59967041 Z M17.75,9 C18.1642136,9 18.5,9.33578644 18.5,9.75 C18.5,10.1642136 18.1642136,10.5 17.75,10.5 L17.25,10.5 C16.8357864,10.5 16.5,10.1642136 16.5,9.75 C16.5,9.33578644 16.8357864,9 17.25,9 L17.75,9 Z M18.75,6.5 C19.1642136,6.5 19.5,6.83578644 19.5,7.25 C19.5,7.66421356 19.1642136,8 18.75,8 L17.25,8 C16.8357864,8 16.5,7.66421356 16.5,7.25 C16.5,6.83578644 16.8357864,6.5 17.25,6.5 L18.75,6.5 Z M17.75,4 C18.1642136,4 18.5,4.33578644 18.5,4.75 C18.5,5.16421356 18.1642136,5.5 17.75,5.5 L17.25,5.5 C16.8357864,5.5 16.5,5.16421356 16.5,4.75 C16.5,4.33578644 16.8357864,4 17.25,4 L17.75,4 Z" id="path-2"></path>
    </defs>
    <g id="页面-1" stroke="none" stroke-width="1" fill="none" fill-rule="evenodd">
        <g id="画板备份-9" transform="translate(-207.000000, -358.000000)">
            <g id="编组" transform="translate(207.000000, 358.000000)">
                <mask id="mask-3" fill="white">
                    <use xlink:href="#path-2"></use>
                </mask>
                <use id="形状结合" fill="url(#linearGradient-1)" xlink:href="#path-2"></use>
            </g>
        </g>
    </g>
</svg>