<!--
  - Copyright (c) Huawei Technologies Co., Ltd. 2026-2026. All rights reserved.
  -->

<svg viewBox="0 0 16 16" xmlns="http://www.w3.org/2000/svg" width="16.000000" height="16.000000" fill="none">
	<rect id="饮食类" width="16.000000" height="16.000000" x="0.000000" y="0.000000" />
	<path id="矢量 954" d="M2.50366 3.18262L3.44263 13.0854C3.45825 13.25 3.52637 13.4055 3.67261 13.4827C3.97363 13.6411 4.67041 13.8728 6.17139 13.8728C6.84106 13.8728 7.35058 13.8267 7.73633 13.7615C7.7229 13.7212 7.71191 13.6802 7.70312 13.6389L7.70312 13.6387C7.68701 13.5615 7.67871 13.4827 7.67871 13.4019L7.67871 13.3289C7.67871 13.3086 7.6792 13.2886 7.68017 13.2686C7.54809 13.1733 7.42041 13.071 7.29761 12.9617C7.13037 12.8127 6.97534 12.6536 6.83252 12.4844L6.83252 12.4841C6.70019 12.3271 6.57812 12.1614 6.46655 11.9871C6.34058 11.7898 6.23047 11.5857 6.13647 11.3743C6.05444 11.1902 5.98437 11.0007 5.92651 10.8059C5.87475 10.6313 5.8335 10.4551 5.80273 10.2769C5.75708 10.0139 5.73437 9.74731 5.73437 9.47656C5.73437 9.39844 5.74243 9.32202 5.75879 9.24756C5.77417 9.17651 5.79712 9.10693 5.82739 9.03906C5.85425 8.979 5.88599 8.92236 5.92261 8.8689C5.96558 8.80591 6.01538 8.7478 6.07202 8.69409C6.10644 8.66162 6.14233 8.63159 6.17993 8.604C6.17725 8.57227 6.17578 8.54004 6.17578 8.50757C6.17578 8.17017 6.2395 7.86206 6.36719 7.58301C6.40552 7.49927 6.44971 7.41797 6.49951 7.3396C6.55005 7.25977 6.60547 7.18433 6.66601 7.11328L6.66636 7.11287Q6.96291 6.76343 7.41894 6.54932L7.42822 6.54492L7.5249 6.50269L7.53491 6.49854C7.67871 6.44043 7.82519 6.39746 7.97436 6.37012L7.97461 6.37012C8.1123 6.34473 8.25244 6.33252 8.39502 6.3335C8.48486 6.33398 8.57495 6.33984 8.66528 6.35083C8.72143 6.2771 8.78222 6.20801 8.84765 6.1438C8.94238 6.05029 9.04712 5.96655 9.16138 5.89258C9.20117 5.86694 9.24194 5.84253 9.28345 5.81958Q9.43176 5.73792 9.59399 5.68115L9.82812 3.18188C9.87231 2.71265 9.50293 2.30713 9.03174 2.30713L3.30005 2.30713C2.82837 2.30713 2.45898 2.71313 2.50366 3.18262ZM8.59277 3.10522L3.81763 3.10522C3.62378 3.10522 3.47095 3.26978 3.48511 3.46289L3.60913 5.15479C3.60913 5.26343 3.67822 5.36133 3.77954 5.4021C4.11182 5.53613 4.95068 5.76685 6.10644 5.32837C7.10864 4.94824 7.93384 5.09399 8.3772 5.23608C8.54907 5.29102 8.75122 5.1792 8.76953 5L8.92431 3.47217C8.94433 3.27563 8.79004 3.10522 8.59277 3.10522ZM13.896 8.39697C13.8547 8.53931 13.738 8.60742 13.5625 8.60742C13.5625 8.60742 7.3772 8.60718 7.31885 8.60718C7.1543 8.60718 7.02051 8.47363 7.02051 8.30884C7.02051 7.93408 7.28223 7.55176 7.80322 7.30688L7.88061 7.27319C8.24438 7.12573 8.6333 7.13013 9.03808 7.27832L9.11596 7.30884L9.14551 7.22559C9.3584 6.67847 9.80713 6.38354 10.4561 6.38354L10.5393 6.38525C11.1707 6.41064 11.6047 6.72852 11.8066 7.29761L11.8794 7.28223C12.4028 7.08057 12.877 7.12012 13.2761 7.42139C13.3999 7.51465 13.5237 7.61768 13.6108 7.729C13.8074 7.97388 13.896 8.13623 13.9097 8.31543C13.9065 8.34619 13.8982 8.38257 13.896 8.39697ZM14.0305 9.22876C14.1999 9.22876 14.3435 9.36084 14.3435 9.53003C14.3435 11.0701 13.4485 12.4009 12.1504 13.0308C12.2954 13.082 12.3992 13.22 12.3992 13.3826L12.3992 13.4556C12.3992 13.6614 12.2322 13.8284 12.0261 13.8284L8.88305 13.8284C8.677 13.8284 8.51025 13.6614 8.51025 13.4556L8.51025 13.3826C8.51025 13.22 8.61401 13.082 8.75903 13.0308C7.46069 12.4009 6.56567 11.0701 6.56567 9.53003C6.56567 9.35791 6.71216 9.22388 6.88428 9.22388L14.0305 9.22876Z" fill="rgb(255,255,255)" fill-rule="evenodd" />
</svg>
