<svg width="12.000000" height="12.000000" viewBox="0 0 12 12" fill="none" xmlns="http://www.w3.org/2000/svg" xmlns:xlink="http://www.w3.org/1999/xlink">
	<desc>
			Created with Pixso.
	</desc>
	<defs>
		<clipPath id="clip10_26931">
			<rect id="earphone_16640" width="12.000000" height="12.000000" fill="white" fill-opacity="0"/>
		</clipPath>
	</defs>
	<g clip-path="url(#clip10_26931)">
		<g opacity="0.000000">
			<rect id="rect" width="12.000000" height="12.000000" fill="#000000" fill-opacity="1.000000"/>
		</g>
		<path id="path" d="M0.75 9.74C0.75 10.06 0.83 10.35 0.98 10.62C1.14 10.89 1.35 11.1 1.62 11.25C1.89 11.41 2.18 11.49 2.49 11.49C2.81 11.49 3.1 11.41 3.37 11.25C3.64 11.1 3.85 10.89 4.02 10.62C4.17 10.35 4.25 10.06 4.25 9.74L4.25 8.25C4.25 7.93 4.17 7.64 4.02 7.37C3.85 7.1 3.64 6.88 3.37 6.72C3.1 6.56 2.81 6.48 2.49 6.48C2.31 6.48 2.13 6.51 1.96 6.57C1.79 6.63 1.64 6.71 1.5 6.81L1.5 5.75C1.5 4.93 1.7 4.17 2.1 3.48C2.5 2.8 3.05 2.25 3.74 1.85C4.43 1.45 5.18 1.25 6 1.25C6.81 1.25 7.56 1.45 8.25 1.85C8.94 2.25 9.49 2.8 9.89 3.48C10.29 4.17 10.5 4.93 10.5 5.75L10.5 6.8C10.34 6.7 10.18 6.63 10.02 6.57C9.86 6.51 9.68 6.48 9.5 6.48C9.18 6.48 8.88 6.56 8.62 6.72C8.35 6.88 8.13 7.1 7.97 7.37C7.81 7.64 7.73 7.93 7.73 8.25L7.73 9.74C7.73 10.06 7.81 10.35 7.97 10.62C8.13 10.89 8.35 11.1 8.62 11.25C8.88 11.41 9.18 11.49 9.5 11.49C9.81 11.49 10.1 11.41 10.37 11.25C10.64 11.1 10.85 10.89 11.01 10.62C11.17 10.35 11.25 10.06 11.25 9.74L11.25 5.75C11.25 4.8 11.02 3.92 10.54 3.12C10.07 2.32 9.43 1.68 8.63 1.2C7.83 0.73 6.95 0.5 6 0.5C5.04 0.5 4.16 0.73 3.37 1.2C2.56 1.68 1.93 2.31 1.46 3.12C0.99 3.91 0.75 4.79 0.75 5.75L0.75 9.74ZM1.5 8.25C1.5 7.97 1.59 7.73 1.79 7.54C1.97 7.34 2.21 7.25 2.49 7.25C2.77 7.25 3.01 7.34 3.21 7.54C3.41 7.73 3.51 7.97 3.51 8.25L3.51 9.74C3.5 10.02 3.4 10.26 3.2 10.46C3.01 10.65 2.77 10.75 2.49 10.75C2.22 10.75 1.99 10.65 1.79 10.46C1.59 10.26 1.5 10.02 1.5 9.74L1.5 8.25ZM8.49 8.25C8.49 7.97 8.59 7.73 8.79 7.54C8.98 7.34 9.22 7.25 9.5 7.25C9.78 7.25 10.02 7.34 10.21 7.54C10.4 7.73 10.5 7.97 10.5 8.25L10.5 9.74C10.5 10.02 10.4 10.26 10.2 10.46C10 10.65 9.77 10.75 9.5 10.75C9.23 10.75 8.99 10.64 8.79 10.44C8.59 10.25 8.49 10.01 8.49 9.74L8.49 8.25Z" fill="#FFFFFF" fill-opacity="0.600000" fill-rule="nonzero"/>
	</g>
</svg>
