<?xml version="1.0" encoding="UTF-8"?>
<svg width="24px" height="24px" viewBox="0 0 24 24" version="1.1" xmlns="http://www.w3.org/2000/svg" xmlns:xlink="http://www.w3.org/1999/xlink">
    <title>ic_data_cheack</title>
    <defs>
        <linearGradient x1="50%" y1="0%" x2="50%" y2="100%" id="linearGradient-1">
            <stop stop-color="#FE7E9D" offset="0%"></stop>
            <stop stop-color="#FE2B5E" offset="100%"></stop>
        </linearGradient>
        <linearGradient x1="50%" y1="0%" x2="50%" y2="100%" id="linearGradient-2">
            <stop stop-color="#FE7E9D" offset="0%"></stop>
            <stop stop-color="#FE2B5E" offset="100%"></stop>
        </linearGradient>
        <linearGradient x1="50%" y1="0%" x2="50%" y2="100%" id="linearGradient-3">
            <stop stop-color="#FFFFFF" stop-opacity="0.9" offset="0%"></stop>
            <stop stop-color="#FFFFFF" stop-opacity="0.7" offset="100%"></stop>
        </linearGradient>
    </defs>
    <g id="ic_data_cheack" stroke="none" stroke-width="1" fill="none" fill-rule="evenodd">
        <path d="M8.93559811,1 C12.9363837,5.67382227 15.4031722,9.22627225 16.3359635,11.65735 C13.1520737,11.9054897 10.6457796,14.5694167 10.6457796,17.819081 C10.6457796,19.3443594 11.1979247,20.7405978 12.1131274,21.8185921 C11.1409316,22.2450971 10.0658596,22.4815375 8.93559811,22.4815375 C4.55288829,22.4815375 1,18.9264585 1,14.5410464 C1,13.689121 1.13407995,12.8685309 1.38227659,12.0992518 C1.4048581,12.0225917 1.43054234,11.9426929 1.46010677,11.8599843 C2.33036243,9.42538227 4.82219287,5.8053875 8.93559811,1 Z" id="形状结合" fill="url(#linearGradient-1)"></path>
        <path d="M16.8228898,13.2786652 C19.328947,13.2786652 21.3605077,15.3114786 21.3605077,17.819081 C21.3605077,20.3266834 19.328947,22.3594968 16.8228898,22.3594968 C14.3168326,22.3594968 12.2852719,20.3266834 12.2852719,17.819081 C12.2852719,15.3114786 14.3168326,13.2786652 16.8228898,13.2786652 Z" id="路径" fill="url(#linearGradient-2)"></path>
        <path d="M17.5034777,14.7371715 L17.5037986,14.7371716 C17.9630706,14.7377784 18.3353515,15.1100593 18.3359583,15.5693313 L18.3366558,18.0105111 C18.3372624,18.4699688 17.9649047,18.8425394 17.5054468,18.8426707 C17.5052884,18.8426707 17.5051299,18.8426707 17.5049715,18.8421954 L17.5046507,18.8421953 C17.0453786,18.8415884 16.6730978,18.4693075 16.672491,18.0100355 L16.6717934,15.5688557 C16.6711868,15.109398 17.0435446,14.7368274 17.5030024,14.7366961 C17.5031609,14.7366961 17.5033194,14.7366961 17.5034777,14.7371715 Z" id="矩形" fill="url(#linearGradient-3)" fill-rule="nonzero" transform="translate(17.504225, 16.789683) rotate(-326.000000) translate(-17.504225, -16.789683) "></path>
    </g>
</svg>