<svg viewBox="0 0 16 16" xmlns="http://www.w3.org/2000/svg" xmlns:xlink="http://www.w3.org/1999/xlink" width="16" height="16" fill="none">
	<rect id="饮食类icon" width="16" height="16" x="0" y="0" />
	<path id="矢量 876" d="M7.51318 4.59985C7.51318 2.99023 6.42578 1.6853 5.08447 1.6853C3.74316 1.6853 2.65576 2.99023 2.65576 4.59985C2.65576 5.95825 3.43018 7.09961 4.47803 7.42285L4.36865 13.5869C4.36865 13.9868 4.68408 14.3149 5.08398 14.3149C5.48438 14.3149 5.79932 13.9863 5.79932 13.5859L5.68311 7.42529C6.73486 7.10522 7.51318 5.96167 7.51318 4.59985ZM11.4207 2.19238C11.4207 1.91235 11.1936 1.6853 10.9136 1.6853C10.6335 1.6853 10.4065 1.91235 10.4065 2.19238L10.4065 4.97754C10.4065 5.23047 10.2014 5.4353 9.94849 5.4353C9.69995 5.4353 9.49072 5.23706 9.49072 4.98828L9.42261 2.14526C9.42261 1.88965 9.21826 1.6853 8.96265 1.6853C8.7002 1.6853 8.48486 1.90039 8.48486 2.16309L8.55054 5.59009C8.56738 6.58716 9.33276 7.39819 10.3057 7.49146L10.1978 13.5813C10.1978 13.9812 10.5132 14.3093 10.9131 14.3093C11.3135 14.3093 11.6284 13.9807 11.6284 13.5803L11.5134 7.48901C12.469 7.3855 13.2195 6.58838 13.2441 5.6062L13.3303 2.16553C13.3303 1.90234 13.1255 1.6853 12.8621 1.6853C12.6077 1.6853 12.3936 1.88843 12.3936 2.14258L12.3262 4.98755C12.3262 5.23633 12.1272 5.4353 11.8782 5.4353C11.6255 5.4353 11.4207 5.23047 11.4207 4.97778L11.4207 2.19238Z" fill="rgb(255,255,255)" fill-rule="evenodd" />
</svg>
