<!--
  - Copyright (c) Huawei Technologies Co., Ltd. 2026-2026. All rights reserved.
  -->

<svg viewBox="0 0 16 16" xmlns="http://www.w3.org/2000/svg" width="16" height="16" fill="none">
	<rect id="容器 7392" width="16" height="16" x="0" y="0" />
	<path id="矢量 845" d="M7.5691 2.18307C7.62572 2.1166 7.72049 2.06245 7.85342 2.0206L10.4824 1.29688C10.6306 1.25873 10.749 1.26764 10.8378 1.32361C10.8464 1.32903 10.8547 1.33489 10.8628 1.34119C10.9062 1.37525 10.9362 1.41436 10.9528 1.45851C10.9709 1.50689 10.9729 1.56133 10.9588 1.62182C10.9551 1.63899 10.9502 1.65568 10.944 1.67187C10.9084 1.76479 10.8309 1.84165 10.7114 1.90244L8.56237 2.99171L8.63991 4.7604C8.91069 4.9204 9.10639 5.05087 9.22701 5.1518C9.5101 5.38565 9.75257 5.61089 9.95443 5.82752C10.1563 6.04414 10.2978 6.21768 10.3791 6.34815L11.6345 8.17961C11.6704 8.2335 11.6936 8.28967 11.704 8.34812C11.7108 8.38577 11.7122 8.42438 11.7083 8.46393C11.6985 8.56485 11.6739 8.66578 11.6345 8.76671L10.5895 10.8714C10.5321 10.9843 10.4587 11.0597 10.3694 11.0977C10.3477 11.107 10.3251 11.114 10.3015 11.1188C10.2383 11.1317 10.1804 11.129 10.128 11.1108C10.0805 11.0943 10.0374 11.0649 9.99874 11.0228C9.99142 11.0143 9.98462 11.0055 9.97832 10.9964C9.91682 10.9069 9.90393 10.784 9.93966 10.6277C10.1317 9.96306 10.3187 9.30334 10.5009 8.64855L9.39687 7.54451L9.07562 7.92113L8.57714 8.76671L9.83258 10.0221C9.832 10.0246 9.8314 10.0271 9.83079 10.0295C9.82097 10.0688 9.8068 10.1069 9.78827 10.144C9.69719 10.4369 9.65657 10.6917 9.66642 10.9083C9.67097 11.0086 9.69715 11.0943 9.74494 11.1656C9.80042 11.2483 9.88501 11.3115 9.99874 11.3551C10.0525 11.3759 10.1071 11.3891 10.1624 11.3946C10.2641 11.4048 10.3683 11.3892 10.4751 11.3477C10.5669 11.3113 10.6442 11.2608 10.7071 11.1962C10.759 11.143 10.801 11.0803 10.8332 11.008L10.9218 11.0966C11.0031 11.168 11.0609 11.2443 11.0954 11.3256C11.1323 11.4043 11.1655 11.4991 11.1951 11.6099L11.1951 11.6431L11.6936 14.7116C11.7105 14.86 11.6864 14.9774 11.6212 15.0637C11.6107 15.0776 11.5991 15.0907 11.5865 15.103C11.5452 15.1454 11.4997 15.1747 11.4499 15.1909C11.3927 15.2096 11.33 15.211 11.2616 15.1953C11.2364 15.1894 11.2127 15.1808 11.1902 15.1696C11.1004 15.1247 11.0319 15.0372 10.9846 14.9073L9.95443 12.1564L6.93031 10.2658L2.31844 15.2543C2.25174 15.3292 2.17913 15.3744 2.10061 15.3901C2.06031 15.3982 2.01845 15.3985 1.97504 15.391C1.92081 15.3825 1.87439 15.3636 1.83578 15.3344C1.785 15.2961 1.74773 15.2398 1.72395 15.1657C1.68457 15.0353 1.73134 14.8642 1.86427 14.6525L6.29521 7.54451L7.15555 5.63551L7.45833 2.48954C7.47802 2.34923 7.51495 2.24707 7.5691 2.18307ZM9.43507 4.55337C9.38745 4.43503 9.36363 4.30711 9.36363 4.16961C9.36363 4.02914 9.38848 3.89898 9.43818 3.77912C9.48864 3.65742 9.56472 3.54634 9.66642 3.44589C9.77022 3.34208 9.88477 3.26496 10.0101 3.21454C10.1284 3.16692 10.2563 3.14311 10.3938 3.14311C10.5343 3.14311 10.6645 3.16795 10.7843 3.21765C10.906 3.26811 11.0171 3.34419 11.1175 3.44589C11.2192 3.54634 11.2953 3.65742 11.3458 3.77912C11.3955 3.89898 11.4203 4.02914 11.4203 4.16961C11.4203 4.31306 11.395 4.44608 11.3445 4.56868C11.2953 4.68801 11.2221 4.79745 11.1249 4.89702C11.0417 4.98344 10.9494 5.05137 10.8481 5.10079C10.7128 5.1668 10.5613 5.1998 10.3938 5.1998C10.2563 5.1998 10.1284 5.17599 10.0101 5.12836C9.88477 5.07794 9.77022 5.00083 9.66642 4.89702C9.56261 4.79321 9.48549 4.67866 9.43507 4.55337Z" fill="rgb(255,255,255)" fill-rule="evenodd" />
</svg>
