<svg viewBox="0 0 16 16" xmlns="http://www.w3.org/2000/svg" xmlns:xlink="http://www.w3.org/1999/xlink" width="16.000000" height="16.000000" fill="none">
	<rect id="运动icon" width="16.000000" height="16.000000" x="0.000000" y="0.000000" />
	<path id="矢量 881" d="M10.9176 1.34497C10.9995 1.34497 11.0796 1.35352 11.1578 1.37085C11.2245 1.3855 11.2898 1.40649 11.3538 1.43384C11.4149 1.45972 11.4729 1.49072 11.5276 1.52661C11.5929 1.56934 11.6536 1.6189 11.7099 1.67554C11.7627 1.72901 11.8095 1.78614 11.8502 1.84766C11.8889 1.90601 11.9221 1.96827 11.9498 2.03419C11.9758 2.0962 11.9961 2.15943 12.0106 2.22413C12.0287 2.30518 12.0378 2.38819 12.0378 2.47315C12.0378 2.55763 12.0288 2.64039 12.0108 2.72096C11.9963 2.7859 11.976 2.84962 11.9498 2.91188C11.9221 2.9778 11.889 3.04005 11.8502 3.0984L11.8502 3.0984C11.8096 3.15993 11.7628 3.2173 11.7099 3.27052C11.6535 3.32741 11.5926 3.37721 11.527 3.41994C11.4725 3.45583 11.4147 3.48659 11.3538 3.51247C11.2897 3.53981 11.2241 3.56081 11.1571 3.5757C11.0792 3.59279 10.9993 3.60134 10.9176 3.60134C10.8352 3.60134 10.7547 3.59279 10.6761 3.57521C10.6096 3.56056 10.5445 3.53957 10.4808 3.51247C10.4194 3.48635 10.3612 3.45534 10.3063 3.41945C10.2411 3.37673 10.1805 3.32716 10.1244 3.27052C10.0713 3.21706 10.0244 3.15968 9.98364 3.09816C9.94497 3.03981 9.91186 2.97755 9.88427 2.91188C9.85809 2.84962 9.83776 2.78614 9.82324 2.7212L9.82324 2.7212C9.80523 2.64039 9.79623 2.55787 9.79623 2.47315C9.79623 2.38795 9.80529 2.30494 9.82345 2.22413C9.83795 2.15943 9.85821 2.0962 9.88427 2.03419C9.91189 1.96851 9.94503 1.90625 9.9837 1.8479C10.0244 1.78638 10.0713 1.72901 10.1244 1.67554C10.1803 1.61914 10.2408 1.56983 10.3057 1.52735L10.3057 1.52735L10.3058 1.5271C10.3609 1.49121 10.4192 1.45996 10.4808 1.43384C10.5443 1.40674 10.6092 1.38574 10.6755 1.37109C10.7543 1.35376 10.835 1.34497 10.9176 1.34497ZM10.8874 9.89436L9.225 8.10284C9.84841 7.14653 10.2673 6.48686 10.4817 6.12382C10.7843 5.61185 10.8896 5.14236 10.7975 4.7156C10.7873 4.66824 10.7747 4.62161 10.7597 4.57522C10.7567 4.56619 10.7537 4.55715 10.7505 4.54812C10.6308 4.20339 10.3808 3.90407 10.0005 3.64992C9.99002 3.64211 9.97943 3.6343 9.96865 3.62697C9.79675 3.50734 9.58538 3.4446 9.33456 3.43849C9.281 3.43703 9.22775 3.43898 9.17483 3.44411C9.10049 3.45119 9.02679 3.46486 8.9537 3.48464C8.71362 3.55324 8.25674 3.65602 7.58307 3.79274C7.04953 3.90139 6.68161 3.98122 6.47931 4.03298C6.31476 4.07473 6.18695 4.11355 6.09588 4.14919C5.97809 4.19534 5.90384 4.24709 5.87317 4.30398C5.73825 4.50857 5.5184 4.86306 5.21356 5.36746C4.88147 5.91678 4.67315 6.27567 4.58862 6.44462C4.5188 6.57182 4.49603 6.68754 4.52035 6.79179C4.53174 6.84062 4.55151 6.88286 4.57971 6.9185C4.6127 6.96001 4.65722 6.99248 4.71325 7.01591C4.73276 7.02397 4.75265 7.03056 4.77295 7.03545C4.84607 7.05351 4.92422 7.05107 5.00741 7.02812C5.04532 7.01762 5.08139 7.00346 5.1156 6.98588C5.17908 6.95317 5.23617 6.908 5.28695 6.85063C5.35065 6.78105 5.48211 6.63627 5.68136 6.41606C6.20331 5.83939 6.49814 5.51786 6.56588 5.45145L7.88635 5.14554C7.85455 5.21634 7.81851 5.29788 7.77822 5.38993C7.622 5.74735 7.49755 6.00761 7.4049 6.17045C7.30645 6.3433 7.18103 6.60966 7.02859 6.96904C6.97506 7.09526 6.94488 7.16338 6.93805 7.17363C6.77484 7.41484 6.68063 7.66265 6.65536 7.91753C6.64932 7.97808 6.64721 8.03912 6.64901 8.10064C6.65371 8.26129 6.68524 8.4107 6.74362 8.54889C6.81057 8.70733 6.91284 8.85065 7.05038 8.97931C7.13653 9.05988 7.3106 9.18878 7.5726 9.36603C7.72763 9.47101 7.99133 9.64411 8.36364 9.88581C9.23944 10.4537 9.68862 10.7667 9.71115 10.8245C9.73062 10.8746 9.84295 11.1329 10.0482 11.5997C10.6423 12.9508 10.9957 13.7787 11.1085 14.0834C11.1359 14.1649 11.1744 14.2379 11.2242 14.3021C11.272 14.3636 11.33 14.4171 11.3984 14.4628C11.4491 14.4964 11.5021 14.5238 11.5576 14.545C11.6342 14.5743 11.7154 14.5914 11.8013 14.5965C11.9472 14.6053 12.069 14.578 12.1666 14.5145C12.214 14.4837 12.2506 14.4466 12.2764 14.4032C12.2813 14.3949 12.2858 14.3863 12.2899 14.3778C12.2994 14.3578 12.3065 14.337 12.3112 14.316L12.3113 14.3158C12.3208 14.2735 12.3209 14.2294 12.3116 14.1827C12.1932 13.5921 11.9215 12.703 11.4964 11.5155C11.2843 10.9232 11.084 10.3895 10.8953 9.91413L10.8874 9.89436ZM11.4492 5.82865L11.8999 6.88359C12.1632 6.8687 12.5616 6.83549 13.0952 6.78373L13.0983 6.78325L13.1013 6.78325C13.1832 6.77958 13.2588 6.79179 13.328 6.81962C13.3616 6.8333 13.3936 6.85039 13.4242 6.87138C13.4836 6.91191 13.5293 6.96025 13.5615 7.0164C13.5781 7.04521 13.591 7.07622 13.6004 7.10893C13.617 7.16728 13.62 7.2227 13.6094 7.27519C13.6006 7.31914 13.5825 7.36089 13.555 7.40093C13.5488 7.4102 13.5421 7.41899 13.5351 7.42729C13.4725 7.50322 13.3797 7.55425 13.2569 7.58037C12.8949 7.65752 12.4972 7.71148 12.064 7.74175C11.6138 7.77324 11.342 7.7603 11.2487 7.70244L11.2422 7.69829L11.2363 7.69341C11.1591 7.62993 11.0477 7.52446 10.9023 7.37773C10.7321 7.20561 10.6167 7.075 10.5561 6.98613L10.5164 6.92778L10.5505 6.86625C10.6132 6.75273 10.6833 6.61332 10.761 6.44755C10.9138 6.12162 11.0264 5.83231 11.0987 5.57962C11.1011 5.564 11.1061 5.54984 11.1138 5.53739C11.123 5.52225 11.1362 5.50955 11.1531 5.4993C11.1705 5.48856 11.1881 5.4827 11.2061 5.48172C11.2244 5.4805 11.243 5.48416 11.2619 5.49295C11.2656 5.49466 11.2693 5.49662 11.2728 5.49857C11.2816 5.50394 11.2897 5.51029 11.2971 5.51761C11.3074 5.52811 11.3175 5.54251 11.3276 5.56082C11.3372 5.57865 11.3498 5.60501 11.3652 5.63993C11.3812 5.6763 11.3972 5.71415 11.4131 5.75345L11.4437 5.81254L11.4492 5.82865ZM11.3235 5.62601C11.3225 5.63065 11.3213 5.63504 11.3197 5.63944C11.3204 5.63724 11.321 5.6348 11.3217 5.6326L11.3235 5.62601ZM3.29819 9.97614C3.69784 10.0631 4.17529 10.1776 4.7305 10.3197C4.86743 10.3548 4.96081 10.3785 5.01062 10.3905L6.40155 8.83893L6.48544 8.94879C6.5253 9.00104 6.57834 9.06403 6.64456 9.138C6.77694 9.28595 6.90716 9.41242 7.03518 9.51691C7.16412 9.62238 7.30725 9.72443 7.46453 9.82307C7.54296 9.87214 7.60806 9.91071 7.65988 9.9383L7.82074 10.024L5.64608 11.6121L5.09637 11.6576C5.08645 11.6617 5.07574 11.6644 5.06421 11.6659C5.04867 11.6676 5.02832 11.6654 5.00317 11.6593L5.00348 11.6554L5.00046 11.6541L5.00018 11.6539L4.99899 11.6534C4.95904 11.6375 4.67877 11.5448 4.15808 11.3753C3.43817 11.1412 3.02026 11.0023 2.90436 10.9586C2.79242 10.9312 2.68396 10.8607 2.57901 10.7467C2.46912 10.6273 2.40585 10.5057 2.38928 10.3817C2.3811 10.3204 2.38617 10.2637 2.40448 10.2117C2.40939 10.1978 2.41528 10.1844 2.42212 10.171C2.42847 10.1588 2.43555 10.1468 2.44333 10.1356L2.44339 10.1353C2.47888 10.0838 2.52933 10.0426 2.59476 10.0113C2.74689 9.93928 2.97906 9.92707 3.29129 9.97492L3.29474 9.97541L3.29819 9.97614ZM4.9433 11.5125C4.94143 11.5174 4.93997 11.5223 4.93887 11.5274C4.93545 11.543 4.93567 11.5594 4.93948 11.5767C4.94147 11.5858 4.94443 11.5941 4.94833 11.6021C4.95212 11.6099 4.95679 11.6173 4.96237 11.6241C4.96951 11.6329 4.97757 11.6402 4.98654 11.6461C4.9895 11.6483 4.99255 11.65 4.9957 11.6517C4.99692 11.6524 4.99801 11.6529 4.99902 11.6534L5.00482 11.639L5.01315 11.5367C4.99542 11.5304 4.97189 11.5223 4.9433 11.5125Z" fill="rgb(255,255,255)" fill-rule="evenodd" />
</svg>
