<?xml version="1.0" encoding="UTF-8"?>
<svg width="64px" height="24px" viewBox="0 0 64 24" version="1.1" xmlns="http://www.w3.org/2000/svg" xmlns:xlink="http://www.w3.org/1999/xlink">
    <title>mdpi/BottomSheet/Handle/normal</title>
    <g id="页面-1" stroke="none" stroke-width="1" fill="none" fill-rule="evenodd">
        <g id="画板" transform="translate(-10.000000, -44.000000)" fill="#000000">
            <g id="路径" transform="translate(10.000000, 44.000000)">
                <path d="M46.2608412,7.14416763 C47.2857892,6.7323964 48.4504802,7.22947432 48.8622514,8.25442224 C49.2544145,9.23056311 48.8222246,10.3334551 47.8947858,10.7919824 L47.7519968,10.8558324 L34.3016529,16.259487 C32.9616443,16.7978334 31.475648,16.8336871 30.1159073,16.3666197 L29.8457232,16.2665004 L16.2602679,10.8581702 C15.2340288,10.4496274 14.7332871,9.28650691 15.1418298,8.26026786 C15.5309182,7.28289734 16.6044308,6.78216835 17.5922917,7.08961075 L17.7397321,7.14182983 L31.3251875,12.5501601 C31.7426042,12.7163325 32.201952,12.7364632 32.6294494,12.6106683 L32.8104974,12.5478223 L46.2608412,7.14416763 Z"></path>
            </g>
        </g>
    </g>
</svg>