<?xml version="1.0" encoding="UTF-8"?>
<svg width="24px" height="24px" viewBox="0 0 24 24" version="1.1" xmlns="http://www.w3.org/2000/svg" xmlns:xlink="http://www.w3.org/1999/xlink">
    <title>体温手动输入-无底框</title>
    <defs>
        <linearGradient x1="50%" y1="96.8607585%" x2="50%" y2="0%" id="linearGradient-1">
            <stop stop-color="#00A5AD" offset="0%"></stop>
            <stop stop-color="#57D3D9" offset="100%"></stop>
        </linearGradient>
        <linearGradient x1="49.6814193%" y1="2.98238934%" x2="49.9933785%" y2="92.1563844%" id="linearGradient-2">
            <stop stop-color="#A8EBED" offset="0%"></stop>
            <stop stop-color="#78DFE3" offset="100%"></stop>
        </linearGradient>
    </defs>
    <g id="页面-1" stroke="none" stroke-width="1" fill="none" fill-rule="evenodd">
        <g id="画板" transform="translate(-167.000000, -394.000000)">
            <g id="编组" transform="translate(167.000000, 394.000000)">
                <path d="M7.58366083,2 L14.5063527,2 C16.0662799,2 16.6531017,2.16166838 17.2236435,2.46566816 L17.2608395,2.48569583 C17.8157762,2.78752629 18.2569805,3.22373149 18.5669329,3.77649418 L18.6124392,3.86028054 C18.9240618,4.45287313 19.0900135,5.04066629 19.0900135,6.66160945 L19.0900135,17.3383905 L19.0891136,17.539787 C19.0759259,18.97671 18.9180521,19.5468747 18.632132,20.1018909 L18.6124392,20.1397195 C18.3156558,20.7040934 17.8867445,21.1528006 17.3432248,21.468024 L17.2608395,21.5143042 C16.6781558,21.8312262 16.1001914,22 14.5063527,22 L7.58366083,22 L7.38563197,21.9990848 C5.97273636,21.9856728 5.41210562,21.8251142 4.86637004,21.5343318 L4.82917405,21.5143042 C4.27423727,21.2124737 3.83303302,20.7762685 3.5230806,20.2235058 L3.47757431,20.1397195 C3.1659517,19.5471269 3,18.9593337 3,17.3383905 L3,6.66160945 C3,5.07515444 3.15896505,4.47835331 3.45788154,3.89810908 L3.47757431,3.86028054 C3.77435775,3.29590664 4.20326899,2.84719937 4.74678872,2.53197598 L4.82917405,2.48569583 C5.41185767,2.16877384 5.9898221,2 7.58366083,2 Z" id="形状结合" fill="url(#linearGradient-1)"></path>
                <path d="M6.75,6 L14.25,6 C14.6642136,6 15,6.33578644 15,6.75 C15,7.16421356 14.6642136,7.5 14.25,7.5 L6.75,7.5 C6.33578644,7.5 6,7.16421356 6,6.75 C6,6.33578644 6.33578644,6 6.75,6 Z" id="矩形备份" fill="#FFFFFF"></path>
                <path d="M6.75,10 L11.25,10 C11.6642136,10 12,10.3357864 12,10.75 C12,11.1642136 11.6642136,11.5 11.25,11.5 L6.75,11.5 C6.33578644,11.5 6,11.1642136 6,10.75 C6,10.3357864 6.33578644,10 6.75,10 Z" id="矩形" fill="#FFFFFF"></path>
                <path d="M16.9541716,16.1732558 C16.9541716,16.6327858 16.8921172,17.0902114 16.7696905,17.533133 L16.1257501,19.8628135 C16.0694222,20.0665997 15.858558,20.1861382 15.6547718,20.1298102 C15.5274676,20.0946224 15.4272933,19.9962976 15.3897395,19.8696712 L14.7095244,17.5760736 C14.5698071,17.1049652 14.4988503,16.6161501 14.4988503,16.1247603 L14.4995378,6.34338015 C14.4995378,5.66555174 15.0490263,5.11606324 15.7268547,5.11606324 C16.4046831,5.11606324 16.9541716,5.66555174 16.9541716,6.34338015 L16.9541716,16.1732558 Z" id="形状结合" fill="url(#linearGradient-2)" transform="translate(15.726511, 12.617669) rotate(-315.000000) translate(-15.726511, -12.617669) "></path>
            </g>
        </g>
    </g>
</svg>