<?xml version="1.0" encoding="UTF-8"?>
<!--
  - Copyright (c) Huawei Technologies Co., Ltd. 2024-2024. All rights reserved.
  -->

<svg width="40px" height="40px" viewBox="0 0 40 40" version="1.1" xmlns="http://www.w3.org/2000/svg" xmlns:xlink="http://www.w3.org/1999/xlink">
    <title>Public/ic_public_picture_filled</title>
    <defs>
        <path d="M31.5388963,3.33333333 C33.3219337,3.33333333 33.9685062,3.51898456 34.6203581,3.86759874 C35.2722099,4.21621293 35.7837871,4.72779007 36.1324013,5.37964193 C36.4810154,6.03149378 36.6666667,6.67806625 36.6666667,8.46110373 L36.6666667,31.5388963 C36.6666667,33.3219337 36.4810154,33.9685062 36.1324013,34.6203581 C35.7837871,35.2722099 35.2722099,35.7837871 34.6203581,36.1324013 C33.9685062,36.4810154 33.3219337,36.6666667 31.5388963,36.6666667 L8.46110373,36.6666667 C6.67806625,36.6666667 6.03149378,36.4810154 5.37964193,36.1324013 C4.72779007,35.7837871 4.21621293,35.2722099 3.86759874,34.6203581 C3.51898456,33.9685062 3.33333333,33.3219337 3.33333333,31.5388963 L3.33333333,8.46110373 C3.33333333,6.67806625 3.51898456,6.03149378 3.86759874,5.37964193 C4.21621293,4.72779007 4.72779007,4.21621293 5.37964193,3.86759874 C6.03149378,3.51898456 6.67806625,3.33333333 8.46110373,3.33333333 L31.5388963,3.33333333 Z M13.75,12.0833333 C12.1391695,12.0833333 10.8333333,13.3891695 10.8333333,15 C10.8333333,16.6108305 12.1391695,17.9166667 13.75,17.9166667 C15.3608305,17.9166667 16.6666667,16.6108305 16.6666667,15 C16.6666667,13.3891695 15.3608305,12.0833333 13.75,12.0833333 Z M29.3106078,19.7173467 C29.8798095,19.8898697 30.3565925,20.1490111 31.3344776,21.112358 L34.0198831,23.7973191 C34.1136569,23.8910774 34.1663457,24.0182465 34.166359,24.1508517 L34.1666667,27.2228109 L34.1666667,27.2228109 C34.1666667,29.6373408 33.915264,30.5129077 33.4431823,31.3956238 C32.9711006,32.2783398 32.2783398,32.9711006 31.3956238,33.4431823 L31.2630767,33.5123356 C30.4215036,33.9397757 29.5166143,34.1666667 27.2228109,34.1666667 L12.7771891,34.1666667 L12.4263586,34.164785 C10.2750846,34.1409747 9.44295647,33.8916599 8.60437622,33.4431823 C7.72166017,32.9711006 7.02889945,32.2783398 6.55681774,31.3956238 C6.48497871,31.2612965 6.39458011,31.063578 6.28562194,30.8024683 C6.24671078,30.7089302 6.26800627,30.6011313 6.33964204,30.5294951 L11.145099,25.7240085 L11.145099,25.7240085 C12.1957639,24.6733436 12.6861564,24.4017431 13.2756867,24.2230586 C13.8652169,24.0443741 14.4681164,24.0443741 15.0576467,24.2230586 L15.1784202,24.2615787 L15.2976623,24.3041007 C15.7732986,24.4839935 16.2433293,24.792344 17.0815164,25.6180699 L17.2720405,25.8085004 C18.2488792,26.7839133 19.8314267,26.7837366 20.8080476,25.8081056 L25.3980601,21.2182966 C26.4487251,20.1676317 26.9391176,19.8960312 27.5286478,19.7173467 C28.1181781,19.5386622 28.7210776,19.5386622 29.3106078,19.7173467 Z"
              id="path-1"></path>
    </defs>
    <g id="页面-1" stroke="none" stroke-width="1" fill="none" fill-rule="evenodd">
        <g id="标签" transform="translate(-21.000000, -29.000000)">
            <g id="Public/ic_public_picture_filled" transform="translate(21.000000, 29.000000)">
                <mask id="mask-2" fill="white">
                    <use xlink:href="#path-1"></use>
                </mask>
                <g id="蒙版"></g>
                <g id="编组" mask="url(#mask-2)" fill="#000000" fill-opacity="0.4">
                    <g id="Symbol/color-light/colorPrimary">
                        <rect id="color/#000000" x="0" y="0" width="40" height="40"></rect>
                    </g>
                </g>
            </g>
        </g>
    </g>
</svg>