<svg width="16.000000" height="16.000000" viewBox="0 0 16 16" fill="none" xmlns="http://www.w3.org/2000/svg" xmlns:xlink="http://www.w3.org/1999/xlink">
	<desc>
			Created with Pixso.
	</desc>
	<defs>
		<clipPath id="clip326_561638">
			<rect id="svg" width="16.000000" height="16.000000" fill="white" fill-opacity="0"/>
		</clipPath>
	</defs>
	<g opacity="0.600000">
		<g clip-path="url(#clip326_561638)">
			<path id="path-1" d="M11.2482 1.33325C11.9148 1.33325 12.3431 1.37231 12.6675 1.44727L11.7733 2.34253C11.6576 2.33765 11.5286 2.33472 11.3835 2.33374L4.68311 2.3335L4.54871 2.33447C3.77014 2.34351 3.47327 2.40869 3.16919 2.57129C2.90894 2.71045 2.71057 2.90869 2.57141 3.16919C2.39526 3.49829 2.33337 3.81909 2.33337 4.75171L2.3335 11.3169L2.33447 11.4512C2.34351 12.23 2.40869 12.5266 2.57141 12.8308C2.71057 13.0911 2.90894 13.2893 3.16919 13.4287C3.48193 13.5959 3.78699 13.6602 4.61646 13.666L11.2482 13.6665C12.181 13.6665 12.5017 13.6047 12.8309 13.4287C13.0912 13.2893 13.2896 13.0911 13.4287 12.8308C13.5959 12.5181 13.6603 12.2129 13.6663 11.3835L13.6667 11.248L13.6667 4.75171C13.6667 4.55078 13.6638 4.37817 13.6576 4.22778L14.5526 3.33276C14.6278 3.65698 14.6667 4.08545 14.6667 4.75171L14.6667 11.248L14.666 11.3958C14.6562 12.4495 14.5385 12.8677 14.3252 13.2747C14.1039 13.6885 13.7693 14.0454 13.3639 14.2764C12.9293 14.5088 12.4369 14.6665 11.2482 14.6665L4.75183 14.6665L4.60425 14.666C3.55042 14.656 3.13232 14.5383 2.72534 14.3252C2.3114 14.1038 1.95471 13.7693 1.72351 13.3638C1.49109 12.9292 1.33337 12.4368 1.33337 11.248L1.33337 4.75171C1.33337 3.58838 1.4519 3.15063 1.6748 2.7251C1.89624 2.31128 2.23083 1.95459 2.63611 1.72339C3.07068 1.49097 3.56323 1.33325 4.75183 1.33325L11.2482 1.33325ZM14.8201 1.17993C15.0804 1.44019 15.0804 1.8623 14.8201 2.1228L8.45618 8.48657C8.1958 8.74707 7.77368 8.74707 7.51331 8.48657C7.25293 8.22632 7.25293 7.8042 7.51331 7.54395L13.8773 1.17993C14.1376 0.919434 14.5597 0.919434 14.8201 1.17993Z" fill="#000000" fill-opacity="1.000000" fill-rule="nonzero"/>
		</g>
	</g>
</svg>
