<?xml version="1.0" encoding="UTF-8"?>
<svg width="24px" height="24px" viewBox="0 0 24 24" version="1.1" xmlns="http://www.w3.org/2000/svg" xmlns:xlink="http://www.w3.org/1999/xlink">
    <title>画板</title>
    <defs>
        <path d="M17.4552585,16.5201811 L20.9016504,19.9659903 C21.1457281,20.2100679 21.1457281,20.6057961 20.9016504,20.8498737 L20.7248737,21.0266504 C20.4807961,21.2707281 20.0850679,21.2707281 19.8409903,21.0266504 L16.3849514,17.5705115 C16.7690371,17.2493647 17.1270214,16.8980393 17.4552585,16.5201811 Z M10.375,18.75 C5.74961522,18.75 2,15.0003848 2,10.375 C2,5.74961522 5.74961522,2 10.375,2 C15.0003848,2 18.75,5.74961522 18.75,10.375 C18.75,12.4497282 17.9955797,14.3482521 16.7460992,15.8112114 L16.7094589,15.8538232 C16.6814318,15.8861988 16.6531606,15.9183574 16.6246482,15.9502961 L16.7460992,15.8112114 C16.6466578,15.9276428 16.5440807,16.0413153 16.4384987,16.1520982 C16.3868994,16.2062348 16.334828,16.2594371 16.2820606,16.3119405 C16.2611305,16.3327646 16.2402951,16.3532796 16.2193533,16.373686 C16.1488484,16.4423992 16.0766375,16.5103329 16.0032385,16.5769817 C15.9760928,16.6016286 15.9490703,16.6258471 15.9218905,16.6498917 C15.8505585,16.7130009 15.7778621,16.7751441 15.7041051,16.8360486 C15.6941829,16.8442407 15.6846846,16.8520479 15.6751688,16.8598346 L15.5081379,16.9930108 C14.0903525,18.0942822 12.3092518,18.75 10.375,18.75 Z M10.375,3.5 C6.57804235,3.5 3.5,6.57804235 3.5,10.375 C3.5,14.1719577 6.57804235,17.25 10.375,17.25 C14.1719577,17.25 17.25,14.1719577 17.25,10.375 C17.25,6.57804235 14.1719577,3.5 10.375,3.5 Z" id="path-1"></path>
    </defs>
    <g id="画板" stroke="none" stroke-width="1" fill="none" fill-rule="evenodd">
        <g id="编组">
            <rect id="矩形" opacity="0" x="0" y="0" width="24" height="24"></rect>
            <mask id="mask-2" fill="white">
                <use xlink:href="#path-1"></use>
            </mask>
            <use id="形状结合" fill="#000000" fill-rule="nonzero" xlink:href="#path-1"></use>
        </g>
    </g>
</svg>