<?xml version="1.0" encoding="UTF-8"?>
<svg width="16px" height="16px" viewBox="0 0 16 16" version="1.1" xmlns="http://www.w3.org/2000/svg" xmlns:xlink="http://www.w3.org/1999/xlink">
    <title>ic_rq</title>
    <defs>
        <path d="M6.375,0.165960998 C8.42880891,0.165960998 10.09375,1.83090208 10.09375,3.884711 C10.09375,5.13499179 9.47673756,6.24116161 8.5305971,6.91533602 C10.9905463,7.79822768 12.75,10.1516231 12.75,12.915961 C12.75,13.2093623 12.5121513,13.447211 12.21875,13.447211 C11.9253487,13.447211 11.6875,13.2093623 11.6875,12.915961 C11.6875,9.98194826 9.30901273,7.603461 6.375,7.603461 C3.44098727,7.603461 1.0625,9.98194826 1.0625,12.915961 C1.0625,13.1800221 0.869842531,13.3990857 0.617421509,13.4402578 L0.53125,13.447211 L0.53125,13.447211 C0.237848727,13.447211 0,13.2093623 0,12.915961 C0,10.1516231 1.7594537,7.79822768 4.21958907,6.91454671 C3.27326244,6.24116161 2.65625,5.13499179 2.65625,3.884711 C2.65625,1.83090208 4.32119109,0.165960998 6.375,0.165960998 Z M10.5155714,6.8883029 L10.5542931,6.89503545 L10.5542931,6.89503545 C12.8315784,7.67841371 13.8298525,9.54686435 14.15625,10.2793869 C14.306811,10.6172858 14.4287353,11.0636888 14.5220229,11.618596 C14.6485898,12.371463 14.1562535,13.085354 13.415504,13.2400355 C13.4434629,13.1366138 13.4583333,13.028024 13.4583333,12.915961 L13.4577649,12.8256896 C13.4288155,10.5278529 12.2961034,8.44798433 10.5096717,7.16291226 C10.5023058,7.15761362 10.489517,7.1481918 10.4713053,7.1346468 L10.4398824,7.11128788 C10.3851126,7.07034446 10.373904,6.99275351 10.4148475,6.93798365 C10.4390079,6.90566438 10.476748,6.8878212 10.5155714,6.8883029 Z M6.375,1.228461 C4.90799363,1.228461 3.71875,2.41770463 3.71875,3.884711 C3.71875,5.35171736 4.90799363,6.540961 6.375,6.540961 C7.84200637,6.540961 9.03125,5.35171736 9.03125,3.884711 C9.03125,2.41770463 7.84200637,1.228461 6.375,1.228461 Z M8.7786461,0.00025125556 C10.5064936,0.141900992 11.8645833,1.58908157 11.8645833,3.353461 C11.8645833,4.5113466 11.2796912,5.53262332 10.3892409,6.13795711 L10.3692631,6.15124995 C10.3290541,6.1777623 10.2749656,6.1666589 10.2484533,6.12644981 C10.23652,6.1083515 10.2319604,6.08682908 10.2349319,6.06607283 L10.2450573,6.03603687 L10.2450573,6.03603687 C10.6041052,5.39088168 10.8020833,4.65423026 10.8020833,3.884711 C10.8020833,2.32036216 9.99070147,0.945521719 8.7658203,0.158047913 L8.75694979,0.152717352 L8.75694979,0.152717352 L8.73437304,0.139284778 C8.69879726,0.11821188 8.68704034,0.0722890498 8.70811324,0.0367132651 C8.7227125,0.0120664381 8.75009569,-0.00208932057 8.7786461,0.00025125556 Z" id="path-1"></path>
    </defs>
    <g id="ic_rq" stroke="none" stroke-width="1" fill="none" fill-rule="evenodd">
        <g id="Public/ic_public_contacts_group" transform="translate(0.916667, 1.104872)">
            <mask id="mask-2" fill="white">
                <use xlink:href="#path-1"></use>
            </mask>
            <use id="蒙版" fill-opacity="0.4" fill="#000000" fill-rule="nonzero" xlink:href="#path-1"></use>
        </g>
    </g>
</svg>