<svg viewBox="0 0 16 16" xmlns="http://www.w3.org/2000/svg" xmlns:xlink="http://www.w3.org/1999/xlink" width="16.000000" height="16.000000" fill="none" customFrame="#000000">
	<rect id="情绪icon" width="16.000000" height="16.000000" x="0.000000" y="0.000000" />
	<path id="矢量 881" d="M14 8C14 4.68628 11.3137 2 8 2C4.68628 2 2 4.68628 2 8C2 11.3137 4.68628 14 8 14C11.3137 14 14 11.3137 14 8ZM5.95081 6.24316C5.95081 5.83911 5.6232 5.51147 5.21909 5.51147C4.815 5.51147 4.4874 5.83911 4.4874 6.24316C4.4874 6.64722 4.815 6.97485 5.21909 6.97485C5.6232 6.97485 5.95081 6.64722 5.95081 6.24316ZM11.5121 6.24316C11.5121 5.83911 11.1845 5.51147 10.7804 5.51147C10.3763 5.51147 10.0487 5.83911 10.0487 6.24316C10.0487 6.64722 10.3763 6.97485 10.7804 6.97485C11.1845 6.97485 11.5121 6.64722 11.5121 6.24316ZM11.1778 9.34668C10.886 10.8298 9.52533 11.9495 7.95816 11.9495C6.38516 11.9495 5.03668 10.822 4.79446 9.33008C4.78116 9.24829 4.77463 9.20801 4.79175 9.18823C4.80826 9.16919 4.8468 9.16919 4.92255 9.16919L11.0688 9.16919C11.2074 9.16919 11.1894 9.28809 11.1778 9.34668Z" fill="rgb(255,255,255)" fill-rule="evenodd" />
	<path id="矢量 881" d="M8 2C11.3137 2 14 4.68628 14 8C14 11.3137 11.3137 14 8 14C4.68628 14 2 11.3137 2 8C2 4.68628 4.68628 2 8 2ZM6.70297 2.25426Q7.33546 2.1119 8 2.1119Q8.66449 2.1119 9.29694 2.25424Q9.80474 2.36853 10.2919 2.57457Q10.7871 2.78402 11.2292 3.07431Q11.7305 3.40344 12.1635 3.83648Q12.5966 4.2696 12.9258 4.77097Q13.216 5.21301 13.4254 5.70812Q13.6315 6.19527 13.7458 6.70308Q13.8881 7.33552 13.8881 8Q13.8881 8.66448 13.7458 9.29692Q13.6315 9.80473 13.4254 10.2919Q13.216 10.787 12.9258 11.229Q12.5966 11.7304 12.1635 12.1635Q11.7304 12.5966 11.229 12.9258Q10.787 13.216 10.2919 13.4254Q9.80481 13.6314 9.2971 13.7457Q8.66457 13.8881 8 13.8881Q7.33552 13.8881 6.70308 13.7458Q6.19527 13.6315 5.70812 13.4254Q5.21302 13.216 4.77097 12.9258Q4.2696 12.5966 3.83648 12.1635Q3.40344 11.7305 3.07431 11.2292Q2.78402 10.7871 2.57457 10.2919Q2.36853 9.80474 2.25424 9.29694Q2.1119 8.66449 2.1119 8Q2.1119 7.33546 2.25426 6.70297Q2.36855 6.19522 2.57457 5.70812Q2.78399 5.213 3.07422 4.77093Q3.40338 4.26959 3.83648 3.83648Q4.26959 3.40337 4.77095 3.07421Q5.21301 2.78399 5.70812 2.57457Q6.19522 2.36855 6.70297 2.25426ZM5.40213 5.41937Q5.3128 5.39957 5.21909 5.39957Q5.1254 5.39957 5.0361 5.41936Q4.96188 5.4358 4.89069 5.46592Q4.81908 5.49621 4.75523 5.53828Q4.68409 5.58517 4.62258 5.64667Q4.56108 5.70818 4.5142 5.77932Q4.47213 5.84317 4.44183 5.91478Q4.41171 5.98601 4.39526 6.06026Q4.37549 6.14952 4.37549 6.24316Q4.37549 6.33681 4.39526 6.42608Q4.41171 6.50033 4.44183 6.57155Q4.47212 6.64315 4.51419 6.70699Q4.56107 6.77814 4.62258 6.83966Q4.68408 6.90116 4.75522 6.94804Q4.81907 6.99012 4.89069 7.02041Q4.96189 7.05053 5.03612 7.06698Q5.12541 7.08676 5.21909 7.08676Q5.31279 7.08676 5.40211 7.06696Q5.47632 7.05052 5.5475 7.02041Q5.61912 6.99011 5.68298 6.94804Q5.75412 6.90116 5.81562 6.83966Q5.87712 6.77816 5.92399 6.70702Q5.96607 6.64317 5.99637 6.57155Q6.02649 6.50034 6.04293 6.4261Q6.06271 6.33682 6.06271 6.24316Q6.06271 6.14952 6.04294 6.06025Q6.02649 5.986 5.99637 5.91478Q5.96608 5.84318 5.92401 5.77934Q5.87713 5.70819 5.81562 5.64667Q5.75412 5.58517 5.68298 5.53829Q5.61912 5.49621 5.5475 5.46592Q5.47633 5.43581 5.40213 5.41937ZM10.9634 5.41937Q10.8741 5.39957 10.7804 5.39957Q10.6867 5.39957 10.5974 5.41936Q10.5232 5.4358 10.452 5.46592Q10.3804 5.49621 10.3165 5.53829Q10.2454 5.58517 10.1839 5.64667Q10.1224 5.70817 10.0755 5.77931Q10.0334 5.84316 10.0031 5.91478Q9.97298 5.98602 9.95654 6.06029Q9.93677 6.14954 9.93677 6.24316Q9.93677 6.33681 9.95654 6.42607Q9.97299 6.50032 10.0031 6.57155Q10.0334 6.64318 10.0755 6.70704Q10.1224 6.77817 10.1839 6.83966Q10.2454 6.90116 10.3165 6.94804Q10.3804 6.99012 10.452 7.02041Q10.5232 7.05053 10.5974 7.06697Q10.6867 7.08676 10.7804 7.08676Q10.8741 7.08676 10.9634 7.06696Q11.0376 7.05052 11.1088 7.02041Q11.1804 6.99012 11.2442 6.94805Q11.3154 6.90117 11.3769 6.83966Q11.4384 6.77814 11.4853 6.70699Q11.5274 6.64315 11.5576 6.57155Q11.5878 6.50035 11.6042 6.42613Q11.624 6.33684 11.624 6.24316Q11.624 6.1495 11.6042 6.06021Q11.5878 5.98598 11.5576 5.91478Q11.5274 5.84319 11.4853 5.77936Q11.4384 5.70819 11.3769 5.64667Q11.3154 5.58516 11.2442 5.53828Q11.1804 5.49621 11.1088 5.46592Q11.0376 5.43581 10.9634 5.41937ZM5.21909 5.51147C5.6232 5.51147 5.95081 5.83911 5.95081 6.24316C5.95081 6.64722 5.6232 6.97485 5.21909 6.97485C4.815 6.97485 4.4874 6.64722 4.4874 6.24316C4.4874 5.83911 4.815 5.51147 5.21909 5.51147ZM10.7804 5.51147C11.1845 5.51147 11.5121 5.83911 11.5121 6.24316C11.5121 6.64722 11.1845 6.97485 10.7804 6.97485C10.3763 6.97485 10.0487 6.64722 10.0487 6.24316C10.0487 5.83911 10.3763 5.51147 10.7804 5.51147ZM7.34016 12.0048Q7.6439 12.0614 7.95816 12.0614Q8.24276 12.0614 8.51958 12.0149Q8.82429 11.9639 9.11957 11.8565Q9.37806 11.7626 9.6155 11.6307Q9.87913 11.4843 10.1168 11.2911Q10.3976 11.0629 10.6199 10.7876Q10.7543 10.6213 10.8673 10.4378Q11.0576 10.1288 11.173 9.79405Q11.2448 9.58615 11.2876 9.3683Q11.307 9.26973 11.2866 9.20313Q11.2743 9.16315 11.2497 9.13329Q11.2325 9.11233 11.2092 9.09636L11.2076 9.09529Q11.151 9.05729 11.0688 9.05729L4.92255 9.05729Q4.84983 9.05729 4.82243 9.06037Q4.75647 9.06778 4.71758 9.10415Q4.71209 9.10928 4.70714 9.11499Q4.7021 9.12082 4.69773 9.12711Q4.66642 9.17226 4.66994 9.24158Q4.67141 9.27058 4.68401 9.34801Q4.7232 9.58946 4.79864 9.81899Q4.90196 10.1334 5.07325 10.4254Q5.17838 10.6046 5.30446 10.7677Q5.52351 11.0509 5.80578 11.2853Q6.01857 11.462 6.25406 11.6Q6.51134 11.7506 6.79572 11.855Q7.06358 11.9534 7.34016 12.0048ZM7.95816 11.9495C9.52533 11.9495 10.886 10.8298 11.1778 9.34668C11.1894 9.28809 11.2074 9.16919 11.0688 9.16919L4.92255 9.16919C4.8468 9.16919 4.80826 9.16919 4.79175 9.18823C4.77463 9.20801 4.78116 9.24829 4.79446 9.33008C5.03668 10.822 6.38516 11.9495 7.95816 11.9495Z" fill="rgb(151,151,151)" fill-opacity="0" fill-rule="evenodd" />
</svg>
