<!--
  - Copyright (c) Huawei Technologies Co., Ltd. 2026-2026. All rights reserved.
  -->

<svg viewBox="0 0 16 16.0015" xmlns="http://www.w3.org/2000/svg" width="16" height="16.0014648" fill="none">
	<rect id="睡眠类icon" width="15.9999666" height="16.0014381" x="0" y="0" />
	<path id="矢量 877" d="M7.89356 9.05638C7.1045 9.57786 6.1543 9.88206 5.13135 9.88206C4.32813 9.88206 3.56958 9.69432 2.89868 9.36131C2.88037 9.35765 2.8623 9.35497 2.84399 9.3535C2.69897 9.35326 2.57495 9.42796 2.51831 9.55443C2.46826 9.66649 2.53271 9.82005 2.57031 9.90819C3.43604 12.0078 5.53345 13.4116 7.82447 13.4116C10.9541 13.4116 13.5 10.8833 13.5 7.77489C13.5 5.54516 12.1729 3.52099 10.1187 2.61841C10.0742 2.59888 10.0105 2.5896 9.9817 2.5896C9.91968 2.58911 9.87891 2.59595 9.83863 2.61133C9.68506 2.67065 9.59913 2.82861 9.62598 2.98389C9.9192 3.60425 10.0825 4.29541 10.0825 5.02416C10.0825 5.69579 9.94361 6.33544 9.69263 6.91723C9.58741 7.14672 8.65552 7.12963 7.99976 7.23656C7.5481 7.31029 7.2627 7.47948 7.21338 7.63622C7.14087 7.86571 7.40821 8.13158 7.65552 8.37718C7.91675 8.63671 8.15455 8.87303 7.94141 9.01878C7.92334 9.03099 7.90747 9.04369 7.89356 9.05638ZM6.03614 4.46386C6.2041 4.22924 6.04077 3.88354 5.73462 3.88354L3.51587 3.88354L3.44971 3.8894C3.27808 3.92065 3.14771 4.07104 3.14771 4.25195L3.15356 4.31811C3.18481 4.48999 3.33521 4.62036 3.51587 4.62036L4.84497 4.61987L3.25562 6.21117L3.21436 6.25951C3.04614 6.49438 3.20972 6.84008 3.51587 6.84008L5.73462 6.84008L5.80078 6.83397C5.97241 6.80297 6.10279 6.65258 6.10279 6.47167L6.09668 6.40551C6.06568 6.23363 5.91529 6.10326 5.73462 6.10326L4.40454 6.10302L5.99488 4.51245L6.03614 4.46386ZM11.3318 8.27611C11.4937 8.27611 11.665 8.24291 11.8455 8.1765C11.9907 8.12328 12.0649 7.96239 12.011 7.81762C11.957 7.67308 11.7969 7.5996 11.6504 7.65306C11.4353 7.73265 11.2544 7.73778 11.1121 7.66967C10.8977 7.56664 10.8118 7.32079 10.8088 7.31176C10.7625 7.16552 10.605 7.08373 10.4587 7.12938C10.3106 7.17504 10.2275 7.33129 10.2732 7.4785C10.2883 7.52709 10.4329 7.95922 10.8601 8.16869C11.0059 8.24047 11.1633 8.27611 11.3318 8.27611Z" fill="rgb(255,255,255)" fill-rule="evenodd" />
</svg>
