<svg viewBox="0 0 16 16" xmlns="http://www.w3.org/2000/svg" xmlns:xlink="http://www.w3.org/1999/xlink" width="16.000000" height="16.000000" fill="none">
	<rect id="睡眠icon" width="16.000000" height="16.000000" x="0.000000" y="0.000000" />
	<path id="path" d="M5.6735 6.35683L7.21004 4.90503C7.32679 4.78828 7.36257 4.63387 7.31737 4.4418C7.29854 4.36272 7.25335 4.30058 7.1818 4.25538C7.11024 4.21019 7.02927 4.1876 6.93889 4.1876L4.57758 4.1876C4.46084 4.1876 4.36104 4.22714 4.27818 4.30623C4.1991 4.38908 4.15955 4.48888 4.15955 4.60563C4.15955 4.72237 4.1991 4.82217 4.27818 4.90503C4.36104 4.98411 4.46084 5.02366 4.57758 5.02366L5.85427 5.02366L4.31773 6.47546C4.23864 6.55832 4.18591 6.63175 4.15955 6.69578C4.12942 6.75603 4.12942 6.84642 4.15955 6.96693C4.18591 7.07238 4.23676 7.14017 4.31208 7.1703C4.39116 7.19666 4.48343 7.20984 4.58888 7.20984L6.93889 7.20984C7.05563 7.20984 7.15355 7.16653 7.23264 7.07991C7.31549 6.99329 7.35692 6.89161 7.35692 6.77486C7.35692 6.65812 7.31926 6.55832 7.24394 6.47546C7.16485 6.39638 7.06693 6.35683 6.95018 6.35683L5.6735 6.35683ZM3.01844 3.32894L3.91099 2.47593C3.94865 2.44204 3.9769 2.39496 3.99573 2.33471C4.01456 2.27445 4.00891 2.21419 3.97878 2.15394C3.95242 2.08991 3.91664 2.04849 3.87145 2.02966C3.82626 2.01083 3.78107 2.00141 3.73587 2.00141L2.28407 2.00141C2.20498 1.99388 2.13719 2.01648 2.0807 2.0692C2.02798 2.12569 2.00161 2.19348 2.00161 2.27257C2.00161 2.35542 2.02798 2.42321 2.0807 2.47593C2.13719 2.53242 2.20498 2.56067 2.28407 2.56067L3.00715 2.56067L2.10895 3.41368C2.05622 3.4664 2.02233 3.52477 2.00726 3.5888C1.99597 3.65282 1.99785 3.70743 2.01291 3.75262C2.0581 3.843 2.15414 3.8882 2.30101 3.8882L3.73587 3.8882C3.81873 3.8882 3.88651 3.85807 3.93924 3.79781C3.99573 3.74132 4.02398 3.67541 4.02398 3.60009C4.02398 3.52101 3.99573 3.45698 3.93924 3.40803C3.88651 3.3553 3.81873 3.32894 3.73587 3.32894L3.01844 3.32894ZM10.8028 2.34036C10.7012 2.29516 10.6014 2.28386 10.5034 2.30646C10.4018 2.32906 10.3208 2.38366 10.2605 2.47028C10.1965 2.5569 10.1683 2.65482 10.1758 2.76403C10.2022 3.06532 10.221 3.47958 10.2323 3.96163C10.2398 4.44369 10.1965 4.99353 10.1024 5.61116C10.0082 6.22502 9.8199 6.73532 9.53745 7.14205C9.18721 7.16841 8.83132 7.19478 8.46978 7.22114C8.11577 7.23997 7.85592 7.26256 7.69021 7.28893C7.52074 7.31529 7.38328 7.36801 7.27783 7.4471C7.16861 7.52242 7.09518 7.64105 7.05752 7.80299C7.01232 8.04778 7.01421 8.27186 7.06317 8.47523C7.11589 8.67859 7.20439 8.9215 7.32867 9.20395C7.36633 9.27551 7.39834 9.34706 7.42471 9.41862C7.05563 9.59939 6.63384 9.75568 6.15932 9.88749C5.6848 10.0193 5.15002 10.0871 4.55499 10.0909C3.96372 10.0946 3.37998 9.98352 2.80378 9.75756C2.63807 9.70484 2.51003 9.71802 2.41964 9.7971C2.32926 9.87996 2.28407 10.0099 2.28407 10.1869C2.28407 10.3601 2.33491 10.5465 2.43659 10.7461C2.98643 11.7592 3.74905 12.5557 4.72446 13.1357C5.70363 13.7119 6.81649 14 8.06305 14C9.13637 13.9736 10.1325 13.678 11.0514 13.1131C11.9703 12.5482 12.7009 11.8006 13.2432 10.8704C13.7855 9.94022 14.0567 8.93657 14.0567 7.85948C14.0642 6.70331 13.7761 5.62999 13.1924 4.63952C12.6087 3.64905 11.8121 2.88266 10.8028 2.34036ZM12.2264 8.88761C11.8724 8.95163 11.5504 8.88761 11.2604 8.69554C10.9704 8.49971 10.7802 8.23044 10.6899 7.88773C10.6748 7.80487 10.6899 7.72955 10.7351 7.66176C10.7802 7.59397 10.8424 7.55631 10.9215 7.54878C10.993 7.52995 11.0627 7.54125 11.1305 7.58268C11.1983 7.6241 11.2416 7.68059 11.2604 7.75215C11.2981 7.89526 11.3828 8.03648 11.5146 8.17583C11.6427 8.31894 11.8517 8.37166 12.1417 8.334C12.2132 8.32647 12.281 8.3453 12.345 8.39049C12.4091 8.43568 12.4505 8.49406 12.4693 8.56561C12.4881 8.63717 12.4693 8.70684 12.4128 8.77463C12.3601 8.84241 12.298 8.88008 12.2264 8.88761Z" fill="rgb(255,255,255)" fill-rule="nonzero" />
</svg>
