<!--
  - Copyright (c) Huawei Technologies Co., Ltd. 2025-2025. All rights reserved.
  -->

<svg viewBox="0 0 24 24" xmlns="http://www.w3.org/2000/svg" xmlns:xlink="http://www.w3.org/1999/xlink" width="24" height="24" fill="none">
	<mask id="mask_0" width="24" height="24" x="0" y="0" maskUnits="userSpaceOnUse" mask-type="luminance">
		<g id="hms_mask_0">
			<rect id="矩形 258" width="24" height="24" x="0" y="0" fill="rgba(255,255,255,1)" />
		</g>
	</mask>
	<g id="mask" mask="url(#mask_0)">
		<g id="组合 376">
			<path id="矢量 29" d="M1.7231 5.06822Q2.3912 4.44 3.65001 4.44L20.35 4.44Q21.5241 4.44 22.194 5.02119Q22.2487 5.06866 22.3 5.12Q22.3416 5.16279 22.3805 5.20781Q22.97 5.88876 22.97 7.08L22.97 19.56Q22.97 20.8024 22.3499 21.4601Q22.3111 21.5012 22.27 21.54C21.81 21.98 21.17 22.2 20.35 22.2L3.65001 22.2Q2.48571 22.2 1.79858 21.6274Q1.748 21.5853 1.70001 21.54Q1.66936 21.5107 1.64007 21.4801Q1.01001 20.8214 1.01001 19.56L1.01001 7.08Q1.01001 5.82119 1.63822 5.15309Q1.65878 5.13123 1.68001 5.11Q1.70124 5.08877 1.7231 5.06822ZM2.59762 6.42049Q2.65266 6.25868 2.74067 6.17066Q2.82868 6.08265 2.99049 6.02762Q3.24811 5.94 3.65001 5.94L20.35 5.94Q20.9987 5.94 21.2239 6.16495Q21.47 6.41844 21.47 7.08L21.47 19.56Q21.47 19.9627 21.3808 20.215Q21.3268 20.3677 21.2332 20.456Q20.9781 20.7 20.35 20.7L3.65001 20.7Q2.99565 20.7 2.73684 20.456Q2.65268 20.3755 2.59897 20.2214Q2.51001 19.9661 2.51001 19.56L2.51001 7.08Q2.51001 6.6781 2.59762 6.42049Z" fill="rgba(0,0,0,1)" fill-rule="evenodd" />
			<path id="矢量 30" d="M19.97 3.12C20.2234 3.12 20.5034 3.15333 20.81 3.22C20.65 2.9 20.4367 2.61333 20.17 2.36C19.91 2.11333 19.6067 1.92 19.26 1.78C18.9134 1.63333 18.55 1.56 18.17 1.56L5.83004 1.56C5.43004 1.56 5.06004 1.63333 4.72004 1.78C4.37338 1.92 4.06671 2.11333 3.80004 2.36C3.54004 2.61333 3.33004 2.9 3.17004 3.22C3.33004 3.18666 3.48004 3.16 3.62004 3.14C3.76671 3.12666 3.89671 3.12 4.01004 3.12L19.97 3.12Z" fill="rgba(0,0,0,1)" fill-opacity="0.90196079" fill-rule="nonzero" />
		</g>
		<g id="编组 60备份">
			<path id="形状结合" d="M14.0543 12.3443L14.4457 11.7676C14.4833 11.7098 14.514 11.6422 14.5405 11.5649L14.5496 11.5375L14.5602 11.5031L14.5775 11.439C14.6002 11.3474 14.6163 11.2551 14.6254 11.1633C14.8143 11.5864 14.9938 11.9957 14.9938 11.9957C14.9938 11.9957 16.2551 12.1218 16.4351 12.1414C16.6149 12.1611 16.7477 12.3624 16.7477 12.5515C16.7477 12.7406 16.6269 12.9703 16.4591 12.9703C16.2913 12.9703 14.8899 13.0556 14.8108 13.0556C14.8014 13.0556 14.7898 13.0562 14.7764 13.0569C14.6759 13.0621 14.474 13.0726 14.3624 12.876C14.3042 12.7733 14.1759 12.5526 14.0543 12.3443ZM10.7258 13.0562C10.72 13.4504 10.8988 13.868 11.2219 14.127L11.2696 14.1638L11.5861 14.4338C10.9548 15.0135 10.0842 15.8146 9.97436 15.9224C9.79968 16.0939 9.50317 16.0713 9.42443 16.0283C9.3457 15.9854 6.98181 14.917 6.98181 14.917C6.98181 14.917 6.66577 14.7556 6.76806 14.4567C6.87036 14.1579 7.24975 14.2048 7.24975 14.2048L9.38671 14.7632L10.7258 13.0562Z" opacity="0.600000024" fill="rgba(0,0,0,1)" fill-rule="evenodd" />
			<path id="形状结合" d="M14.3854 11.8565L14.0543 12.3443C14.1759 12.5526 14.3042 12.7733 14.3624 12.876C14.474 13.0726 14.6759 13.0621 14.7764 13.0569C14.7898 13.0562 14.8014 13.0556 14.8108 13.0556C14.8899 13.0556 16.2913 12.9703 16.4591 12.9703C16.6269 12.9703 16.7477 12.7406 16.7477 12.5515C16.7477 12.3624 16.6149 12.1611 16.4351 12.1414C16.2551 12.1218 14.9938 11.9957 14.9938 11.9957C14.9938 11.9957 14.9767 11.9567 14.9474 11.8902C14.882 11.7416 14.756 11.4557 14.6254 11.1633C14.6163 11.2551 14.6002 11.3474 14.5775 11.439L14.5602 11.5031L14.5496 11.5375L14.5405 11.5649C14.514 11.6422 14.4833 11.7098 14.4457 11.7676L14.3854 11.8565ZM14.7047 12.4692L15.301 12.529Q14.8278 12.5556 14.8108 12.5556Q14.79 12.5556 14.7557 12.5573L14.7047 12.4692ZM9.97436 15.9224C10.0638 15.8346 10.6571 15.2877 11.2152 14.7746C11.3428 14.6573 11.4686 14.5417 11.5861 14.4338L11.2696 14.1638L11.2219 14.127C11.2146 14.1212 11.2074 14.1152 11.2003 14.1092C11.0607 13.9919 10.9494 13.8446 10.8697 13.6829C10.7727 13.486 10.7227 13.2677 10.7258 13.0562L10.3012 13.5975L9.38671 14.7632L7.24975 14.2048C7.24975 14.2048 6.87036 14.1579 6.76806 14.4567C6.66577 14.7556 6.98181 14.917 6.98181 14.917C6.98181 14.917 9.3457 15.9854 9.42443 16.0283C9.50317 16.0713 9.79968 16.0939 9.97436 15.9224ZM8.46113 15.0381L9.60057 15.5591Q9.60705 15.5589 9.61448 15.5582Q9.62727 15.5569 9.63574 15.5545L10.7646 14.5097L10.8299 14.4497Q10.769 14.3947 10.7137 14.3346Q10.6165 14.2289 10.5368 14.1072L9.57766 15.3299L8.46113 15.0381Z" opacity="0.600000024" fill="rgba(151,151,151,1)" fill-opacity="0" fill-rule="evenodd" />
			<path id="形状结合" d="M15 9.30902C15 8.89484 14.6642 8.55902 14.25 8.55902C13.8358 8.55902 13.5 8.89484 13.5 9.30902C13.5 9.72321 13.8358 10.059 14.25 10.059C14.6642 10.059 15 9.72321 15 9.30902ZM13.8316 10.21C14.3913 10.5408 14.4177 11.0972 14.3419 11.4468L14.3283 11.5031L14.321 11.5297L14.3055 11.5793L14.2975 11.6024C14.277 11.6583 14.2552 11.7022 14.2361 11.73L13.1067 13.2941L14.51 15.0263C14.5492 15.0774 14.5814 15.1241 14.6065 15.1666C14.6317 15.209 14.654 15.2543 14.6737 15.3026L15.4963 17.639C15.5118 17.7563 15.4826 17.9231 15.3171 18.0193C15.1275 18.1295 14.8813 17.989 14.7978 17.858L13.6307 15.8065L12.4529 14.7725L11.5661 14.0517L11.4142 13.9322C11.0156 13.6562 10.8961 13.1219 11.0675 12.787L11.676 11.6099C11.8031 11.5936 11.9709 11.5683 12.0771 11.5371C12.2668 11.4814 12.2436 11.3636 12.1212 11.3627L11.8048 11.3609L11.9201 11.1377L11.5156 11.1008L10.7706 11.6547L10.1557 12.1204C9.99461 12.2512 9.76756 12.249 9.60142 12.1048C9.43821 11.9631 9.49876 11.6705 9.59629 11.5839L11 10.2346C11.1229 10.1259 11.229 10.0932 11.3614 10.0911L12.4328 10.0656L12.5843 10.0612C12.6335 10.0601 12.6815 10.0594 12.728 10.059L12.8636 10.0591L12.9914 10.0615C13.4039 10.0732 13.6841 10.1227 13.8316 10.21Z" fill="rgba(0,0,0,1)" fill-rule="evenodd" />
			<path id="形状结合" d="M14.4246 10.0386C14.7546 9.9599 15 9.6631 15 9.30902C15 8.89484 14.6642 8.55902 14.25 8.55902C13.8358 8.55902 13.5 8.89484 13.5 9.30902C13.5 9.41652 13.5226 9.51874 13.5633 9.61118C13.6796 9.8749 13.9433 10.059 14.25 10.059C14.3101 10.059 14.3685 10.0519 14.4246 10.0386ZM14.2038 10.5582C14.1202 10.4295 14.0001 10.3095 13.8316 10.21C13.7191 10.1434 13.5295 10.0989 13.2629 10.0763C13.1799 10.0692 13.0894 10.0643 12.9914 10.0615L12.8636 10.0591L12.728 10.059C12.6815 10.0594 12.6335 10.0601 12.5843 10.0612L12.4328 10.0656L11.3614 10.0911C11.229 10.0932 11.1229 10.1259 11 10.2346L9.59629 11.5839C9.49876 11.6705 9.43821 11.9631 9.60142 12.1048C9.76756 12.249 9.99461 12.2512 10.1557 12.1204L10.7706 11.6547L11.2894 11.269L11.2895 11.2689L11.4742 11.1316L11.5156 11.1008L11.632 11.1114L11.8061 11.1273L11.8315 11.1296L11.9201 11.1377L11.8048 11.3609L11.8997 11.3615L12.1212 11.3627C12.234 11.3636 12.2625 11.4636 12.1181 11.5228C12.1058 11.5279 12.0921 11.5327 12.0771 11.5371C12.0229 11.553 11.9525 11.5674 11.8798 11.5799C11.8368 11.5872 11.793 11.5939 11.7512 11.5998C11.7252 11.6034 11.6999 11.6068 11.676 11.6099L11.6722 11.6171L11.547 11.8594L11.0675 12.787C10.8961 13.1219 11.0156 13.6562 11.4142 13.9322L11.5661 14.0517L12.4529 14.7725L13.6307 15.8065L14.7978 17.858C14.8813 17.989 15.1275 18.1295 15.3171 18.0193C15.4826 17.9231 15.5118 17.7563 15.4963 17.639L14.6737 15.3026C14.654 15.2543 14.6317 15.209 14.6065 15.1666C14.5814 15.1241 14.5492 15.0774 14.51 15.0263L13.1067 13.2941L14.2361 11.73C14.2552 11.7022 14.277 11.6583 14.2975 11.6024L14.3055 11.5793L14.321 11.5297L14.3283 11.5031L14.3419 11.4468C14.3949 11.2025 14.398 10.857 14.2038 10.5582ZM13.8543 11.3359Q13.8969 11.1346 13.8461 10.9647Q13.8318 10.9171 13.8093 10.8739Q13.7365 10.7346 13.5772 10.6404L13.5771 10.6403Q13.5446 10.6211 13.4239 10.5998Q13.25 10.5691 12.9821 10.5614L12.8632 10.5591L12.7354 10.559L12.599 10.5609L12.4447 10.5655L11.4191 10.5899L12.7054 10.7073L12.5419 11.0237Q12.5709 11.0509 12.5955 11.0816Q12.6311 11.1262 12.6574 11.1782Q12.6914 11.2455 12.7058 11.3167Q12.7204 11.3888 12.7149 11.465Q12.7078 11.5651 12.67 11.6518Q12.6166 11.7743 12.502 11.8701Q12.3851 11.9678 12.218 12.0168Q12.1302 12.0426 12.0032 12.0658L11.5126 13.0149Q11.4682 13.1015 11.5089 13.248Q11.5392 13.3573 11.6056 13.4365Q11.6456 13.4843 11.6988 13.5211L11.7113 13.5298L11.8815 13.6637L12.7756 14.3905L14.0238 15.4862L14.5079 16.3372L14.2067 15.4817Q14.1927 15.449 14.1764 15.4215Q14.1552 15.3857 14.117 15.3355L12.4773 13.3116L13.8183 11.4545Q13.8223 11.4458 13.8256 11.4371L13.8308 11.4222L13.8412 11.3887L13.8442 11.3781L13.8543 11.3359ZM11.3629 10.5912Q11.3571 10.5914 11.3529 10.5918Q11.3463 10.5963 11.3374 10.6037L11.3078 10.6322L11.3629 10.5912ZM14.4817 9.21317Q14.5 9.25732 14.5 9.30902Q14.5 9.36072 14.4817 9.40487Q14.4634 9.44913 14.4267 9.48579Q14.3901 9.52245 14.3458 9.54076Q14.3017 9.55902 14.25 9.55902Q14.1983 9.55902 14.1541 9.54076Q14.1099 9.52245 14.0732 9.48579Q14.0366 9.44913 14.0182 9.40487Q14 9.36073 14 9.30902Q14 9.25732 14.0182 9.21317Q14.0366 9.16892 14.0732 9.13226Q14.1099 9.09559 14.1541 9.07728Q14.1983 9.05902 14.25 9.05902Q14.3017 9.05902 14.3458 9.07728Q14.3901 9.09559 14.4267 9.13226Q14.4634 9.16892 14.4817 9.21317Z" fill="rgba(151,151,151,1)" fill-opacity="0" fill-rule="evenodd" />
		</g>
	</g>
</svg>
