<?xml version="1.0" encoding="UTF-8"?>
<svg width="12px" height="11px" viewBox="0 0 12 11" version="1.1" xmlns="http://www.w3.org/2000/svg" xmlns:xlink="http://www.w3.org/1999/xlink">
    <title>ic_triangle_light</title>
    <g id="1113-改" stroke="none" stroke-width="1" fill="none" fill-rule="evenodd">
        <g id="画板" transform="translate(-149.000000, -93.000000)" fill="#999999" stroke="#FFFFFF" stroke-width="1.5">
            <path d="M154.681802,95.2726136 C155.286137,95.18628 155.92539,95.3443639 156.43856,95.7698651 L156.43856,95.7698651 L159.8,100.15 C160.172792,100.647056 160.30882,101.24816 160.227386,101.818198 C160.145952,102.388236 159.847056,102.927208 159.35,103.3 C158.960534,103.5921 158.486833,103.75 158,103.75 L158,103.75 L152,103.75 C151.37868,103.75 150.81618,103.49816 150.40901,103.09099 C150.00184,102.68382 149.75,102.12132 149.75,101.5 C149.75,101.013167 149.9079,100.539466 150.2,100.15 L150.2,100.15 L153.2,96.15 C153.572792,95.6529437 154.111764,95.3540476 154.681802,95.2726136 Z" id="三角形" transform="translate(155.000000, 99.000000) scale(1, -1) translate(-155.000000, -99.000000) "></path>
        </g>
    </g>
</svg>