<?xml version="1.0" encoding="UTF-8"?>
<svg width="16px" height="16px" viewBox="0 0 16 16" version="1.1" xmlns="http://www.w3.org/2000/svg" xmlns:xlink="http://www.w3.org/1999/xlink">
    <title>ic_workout</title>
    <g id="ic_workout" stroke="none" stroke-width="1" fill="none" fill-rule="evenodd">
        <g id="编组-26">
            <rect id="矩形" fill="#FF062A" opacity="0" x="0" y="0" width="17" height="17"></rect>
            <path d="M12.6779693,4.21948968 C12.9126686,4.21948968 13.1029299,4.40864344 13.1029299,4.64197644 C13.1029299,4.80460246 13.0105073,4.94576769 12.8750327,5.01638885 C12.8609626,5.03977536 11.8329277,5.56880621 9.793527,6.60040073 C9.68703967,7.42589032 9.64548807,7.86905307 9.6688722,7.92988899 C9.69225045,7.99070956 10.0152199,10.0341462 10.6377806,14.060199 C10.6483829,14.0946619 10.6530289,14.1314211 10.6530289,14.1692591 C10.6530289,14.4205326 10.4481387,14.6242301 10.1953938,14.6242301 C9.98750842,14.6242301 9.81199786,14.4864239 9.7562443,14.2976849 C9.69686468,14.1194154 9.34070539,12.7037078 8.69689698,10.2243505 L8.62127282,9.93343807 C8.617729,9.9040402 8.5910245,9.88308136 8.56162663,9.88662517 C8.54716604,9.88836835 8.53437484,9.89584494 8.52576241,9.90688416 L8.51629151,9.92584359 C7.80191843,12.5644673 7.41265225,14.0762532 7.33736549,14.2910149 C7.28549565,14.4830184 7.10823216,14.6242301 6.89779378,14.6242301 C6.6450489,14.6242301 6.44015869,14.4205326 6.44015869,14.1692591 C6.44015869,14.1244413 6.4466769,14.081137 6.45882227,14.0402322 C6.49324623,13.8606671 6.67580946,12.670572 6.87271883,11.387908 L6.99848508,10.5691505 C7.2070439,9.21281161 7.39967124,7.97030814 7.41626479,7.92988899 C7.44060199,7.87060756 7.39166228,7.44857518 7.26944564,6.66379187 C5.31077453,5.60937632 4.31816417,5.056693 4.29161456,5.00574192 C4.16717919,4.93114674 4.08404575,4.7962135 4.08404575,4.64197644 C4.08404575,4.40864344 4.27430709,4.21948968 4.50900636,4.21948968 C4.57736153,4.21948968 4.6419473,4.23553448 4.69916114,4.26404253 L4.70102266,4.26541644 C4.71171764,4.27143178 5.76625703,4.66526667 7.86464083,5.4469211 C8.16293146,5.52514563 8.39179494,5.56425789 8.55123127,5.56425789 C8.79038576,5.56425789 9.03803599,5.47644991 9.14050425,5.4469211 C9.26548407,5.37062436 12.4437398,4.28141822 12.4869446,4.26541644 C12.5442818,4.2357205 12.609219,4.21948968 12.6779693,4.21948968 Z M8.57469846,3 C9.08827562,3 9.50461216,3.41633654 9.50461216,3.9299137 C9.50461216,4.44349085 9.08827562,4.8598274 8.57469846,4.8598274 C8.06112131,4.8598274 7.64478477,4.44349085 7.64478477,3.9299137 C7.64478477,3.41633654 8.06112131,3 8.57469846,3 Z" id="形状结合" fill="#FFFFFF"></path>
        </g>
    </g>
</svg>