<svg viewBox="0 0 16 16" xmlns="http://www.w3.org/2000/svg" xmlns:xlink="http://www.w3.org/1999/xlink" width="16.000000" height="16.000000" fill="none">
	<rect id="轮椅活动时长 黑" width="16.000000" height="16.000000" x="0.000000" y="0.000000" fill="rgb(255,255,255)" fill-opacity="0" />
	<g id="编组 41">
		<g id="编组 26备份 5">
			<path id="形状结合" d="M-nan -nanC-nan -nan -nan -nan -nan -nanC-nan -nan -nan -nan -nan -nanC-nan -nan -nan -nan -nan -nanC-nan -nan -nan -nan -nan -nanL-nan -nanZ" opacity="0" fill="rgb(0,0,0)" fill-rule="evenodd" transform="matrix(-nan,-nan,-nan,-nan,-nan,-nan)" />
			<path id="形状结合" d="" opacity="0" fill="rgb(151,151,151)" fill-opacity="0" fill-rule="nonzero" transform="matrix(-nan,-nan,-nan,-nan,-nan,-nan)" />
		</g>
		<path id="路径 9" d="M8.82581 7.98975L8.63979 5.37576C8.63979 5.37576 8.58523 4.58139 8.10855 4.23427C7.63187 3.88716 7.23757 3.90473 6.90221 3.95199C6.56684 3.99925 6.20883 4.31059 6.20883 4.31059C6.20883 4.31059 5.14877 5.21544 4.46921 6.13779C4.23604 6.44423 4.1856 6.85185 4.33791 7.20551C4.42595 7.40992 4.52201 7.62815 4.59632 7.78457C4.78 8.17117 5.42422 9.29446 5.42422 9.29446L6.16977 8.93263L5.40411 6.88885C5.40411 6.88885 5.81026 6.50895 6.04571 6.32712C6.28116 6.14529 6.81776 5.78732 6.81776 5.78732C6.81776 5.78732 6.54799 6.15751 6.37695 6.32712C6.20591 6.49672 6.04535 6.63385 6.04535 6.63385L6.23719 8.22675L8.82581 7.98975Z" fill="rgb(0,0,0)" fill-rule="evenodd" />
		<path id="路径 9" d="M6.5186 8.20099L8.82581 7.98975L8.63979 5.37576C8.63979 5.37576 8.58523 4.58139 8.10855 4.23427C7.63187 3.88716 7.23757 3.90473 6.90221 3.95199C6.56684 3.99925 6.20883 4.31059 6.20883 4.31059C6.20883 4.31059 5.14877 5.21544 4.46921 6.13779C4.23604 6.44423 4.1856 6.85185 4.33791 7.20551C4.42595 7.40992 4.52201 7.62815 4.59632 7.78457C4.78 8.17117 5.42422 9.29446 5.42422 9.29446L6.16977 8.93263L6.1285 8.82247L5.52851 7.2209L5.40411 6.88885C5.40411 6.88885 5.43309 6.86174 5.48005 6.81855C5.6089 6.70003 5.87315 6.46038 6.04571 6.32712C6.28116 6.14529 6.81776 5.78732 6.81776 5.78732C6.81776 5.78732 6.54799 6.15751 6.37695 6.32712C6.20591 6.49672 6.04535 6.63385 6.04535 6.63385L6.09515 7.0473L6.09929 7.08174L6.23719 8.22675L6.5186 8.20099ZM6.74856 7.59416L8.20338 7.46097L8.05793 5.41717L8.05783 5.41573Q8.05617 5.39152 8.04757 5.33682Q8.0287 5.21682 7.9946 5.10413Q7.90485 4.80754 7.76517 4.70583Q7.55621 4.55367 7.35721 4.52076Q7.21424 4.49711 6.9836 4.52961Q6.89933 4.54149 6.74323 4.64096Q6.64839 4.70139 6.59162 4.75076Q6.33731 4.96787 6.00126 5.2958Q5.33536 5.94561 4.93884 6.4838Q4.90329 6.53057 4.87982 6.58051L5.00563 6.46283Q5.4319 6.0641 5.68917 5.86543Q5.94063 5.67125 6.49403 5.30206L7.28919 6.13087Q6.99191 6.53882 6.78769 6.74133Q6.72362 6.80486 6.66067 6.86441L6.74856 7.59416Z" fill="rgb(151,151,151)" fill-opacity="0" fill-rule="evenodd" />
		<path id="椭圆形备份 13" d="M5.78873 9.5078C6.01878 9.5078 6.20528 9.32239 6.20528 9.09368C6.20528 8.86497 6.01878 8.67957 5.78873 8.67957C5.55868 8.67957 5.37219 8.86497 5.37219 9.09368C5.37219 9.32239 5.55868 9.5078 5.78873 9.5078Z" fill="rgb(0,0,0)" fill-rule="evenodd" />
		<path id="椭圆形备份 13" d="M6.20528 9.09368C6.20528 9.32239 6.01878 9.5078 5.78873 9.5078C5.55868 9.5078 5.37219 9.32239 5.37219 9.09368C5.37219 8.86497 5.55868 8.67957 5.78873 8.67957C6.01878 8.67957 6.20528 8.86497 6.20528 9.09368ZM5.63507 9.16089Q5.62194 9.13008 5.62194 9.09368Q5.62194 9.05728 5.63507 9.02647Q5.64758 8.99711 5.672 8.97283Q5.69694 8.94804 5.72698 8.93596Q5.75555 8.92447 5.78873 8.92447Q5.82192 8.92447 5.85049 8.93596Q5.88053 8.94804 5.90547 8.97283Q5.92989 8.99711 5.9424 9.02647Q5.95552 9.05728 5.95552 9.09368Q5.95552 9.13008 5.9424 9.16089Q5.92989 9.19025 5.90547 9.21454Q5.88053 9.23933 5.85049 9.25141Q5.82192 9.2629 5.78873 9.2629Q5.75555 9.2629 5.72698 9.25141Q5.69694 9.23933 5.672 9.21454Q5.64758 9.19025 5.63507 9.16089Z" fill="rgb(151,151,151)" fill-opacity="0" fill-rule="evenodd" />
		<circle id="椭圆形" cx="7.35177898" cy="2.3747282" r="1.0413543" fill="rgb(0,0,0)" />
		<circle id="椭圆形" cx="7.35177898" cy="2.3747282" r="0.749688804" stroke="rgb(151,151,151)" stroke-opacity="0" stroke-width="0.583330989" />
		<path id="形状结合" d="M7.26403 7.57971C9.25082 7.57971 10.8614 9.19033 10.8614 11.1771C10.8614 13.1639 9.25082 14.7745 7.26403 14.7745C5.27724 14.7745 3.66663 13.1639 3.66663 11.1771C3.66663 10.5179 3.84394 9.90011 4.15347 9.36881L4.15649 9.37032C4.2403 9.23741 4.38842 9.14911 4.55716 9.14911C4.81858 9.14911 5.0305 9.36103 5.0305 9.62245C5.0305 9.68202 5.0195 9.73902 4.99942 9.79152L5.0041 9.79386C4.99746 9.80467 4.9909 9.81553 4.98441 9.82645C4.97398 9.84827 4.96192 9.86917 4.94839 9.88898C4.73536 10.2707 4.61396 10.7106 4.61396 11.1788C4.61396 12.6428 5.80073 13.8295 7.26468 13.8295C8.72863 13.8295 9.9154 12.6428 9.9154 11.1788C9.9154 9.71485 8.72863 8.52809 7.26468 8.52809C6.82017 8.52809 6.40121 8.6375 6.03327 8.83087C5.97783 8.48648 5.73663 8.20424 5.41572 8.09021C5.95591 7.76607 6.58821 7.57971 7.26403 7.57971Z" fill="rgb(0,0,0)" fill-rule="evenodd" />
		<path id="形状结合" d="M11.4448 11.1771Q11.4448 12.0273 11.116 12.8046Q10.7986 13.555 10.2203 14.1333Q9.64191 14.7117 8.89154 15.0291Q8.11421 15.3579 7.26403 15.3579Q6.41385 15.3579 5.63652 15.0291Q4.88615 14.7117 4.3078 14.1333Q3.72946 13.555 3.41208 12.8046Q3.08329 12.0273 3.08329 11.1771Q3.08329 10.0469 3.64944 9.07517L3.92483 8.60247L4.41722 8.8485L4.15649 9.37032L3.66307 9.05917Q3.80566 8.83305 4.03842 8.70178Q4.27956 8.56578 4.55716 8.56578Q4.77175 8.56578 4.96865 8.64906Q5.15838 8.72931 5.30434 8.87527Q5.45031 9.02124 5.53056 9.21097Q5.61383 9.40786 5.61383 9.62245Q5.61383 9.81801 5.54425 9.99993L4.99942 9.79152L5.26016 9.26971L5.83019 9.55454L5.48371 10.1281L4.98441 9.82645L5.51065 10.0781Q5.47578 10.151 5.43018 10.2178L4.94839 9.88898L5.45777 10.1732Q5.19729 10.64 5.19729 11.1788Q5.19729 11.5998 5.35952 11.9833Q5.5164 12.3543 5.80282 12.6407Q6.08924 12.9271 6.46014 13.084Q6.84369 13.2462 7.26468 13.2462Q7.68568 13.2462 8.06922 13.084Q8.44013 12.9271 8.72655 12.6407Q9.01297 12.3543 9.16984 11.9833Q9.33207 11.5998 9.33207 11.1788Q9.33207 10.7578 9.16985 10.3743Q9.01297 10.0034 8.72655 9.71694Q8.44013 9.43052 8.06922 9.27364Q7.68568 9.11142 7.26468 9.11142Q6.75336 9.11142 6.30465 9.34723L5.58633 9.72474L5.45736 8.92358Q5.44163 8.82587 5.37728 8.74923Q5.31314 8.67282 5.2204 8.63987L4.05571 8.22599L5.11559 7.59002Q6.1049 6.99638 7.26403 6.99638Q8.11421 6.99638 8.89154 7.32516Q9.64191 7.64254 10.2203 8.22089Q10.7986 8.79924 11.116 9.54961Q11.4448 10.3269 11.4448 11.1771ZM10.2781 11.1771Q10.2781 10.5635 10.0415 10.0041Q9.81275 9.46329 9.39531 9.04585Q8.97786 8.6284 8.43707 8.39966Q7.87763 8.16304 7.26403 8.16304Q6.42807 8.16304 5.71586 8.5904L5.41572 8.09021L5.61105 7.54055Q6.0027 7.67972 6.27081 7.99909Q6.54226 8.32243 6.60919 8.73816L6.03327 8.83087L5.7619 8.31451Q6.46546 7.94476 7.26468 7.94475Q7.92226 7.94475 8.5237 8.19914Q9.10418 8.44466 9.5515 8.89199Q9.99882 9.33931 10.2443 9.91979Q10.4987 10.5212 10.4987 11.1788Q10.4987 11.8364 10.2443 12.4378Q9.99882 13.0183 9.5515 13.4656Q9.10418 13.9129 8.5237 14.1585Q7.92226 14.4129 7.26468 14.4129Q6.6071 14.4129 6.00566 14.1585Q5.42519 13.9129 4.97786 13.4656Q4.53054 13.0183 4.28502 12.4378Q4.03063 11.8364 4.03063 11.1788Q4.03063 10.3365 4.439 9.60472L4.4518 9.5818L4.4666 9.56012Q4.46185 9.56707 4.45818 9.57475L4.47043 9.54913L4.50481 9.49223L5.0041 9.79386L4.74336 10.3157L4.26567 10.077L4.45458 9.58312Q4.44717 9.60249 4.44717 9.62245Q4.44717 9.66801 4.47939 9.70023Q4.5116 9.73244 4.55716 9.73244Q4.61776 9.73244 4.6499 9.68147L4.3682 10.1282L3.89273 9.89063L4.15347 9.36881L4.6575 9.66246Q4.24996 10.362 4.24996 11.1771Q4.24996 11.7907 4.48658 12.3502Q4.71531 12.8909 5.13276 13.3084Q5.5502 13.7258 6.091 13.9546Q6.65043 14.1912 7.26403 14.1912Q7.87763 14.1912 8.43707 13.9546Q8.97786 13.7258 9.39531 13.3084Q9.81275 12.8909 10.0415 12.3502Q10.2781 11.7907 10.2781 11.1771Z" fill="rgb(151,151,151)" fill-opacity="0" fill-rule="nonzero" />
		<path id="形状结合" d="M8.68989 7.90576L9.82869 8.18985C9.82869 8.18985 11.145 8.5761 11.365 8.75751C11.5851 8.93892 11.7499 9.4245 12.0182 10.0958C12.2587 10.6975 12.8414 12.4539 12.9598 12.8118C12.9857 12.8733 13 12.9409 13 13.0118C13 13.2983 12.7663 13.5305 12.4782 13.5305C12.2804 13.5305 12.1083 13.4212 12.0198 13.2599L12.0182 13.2606L12.0053 13.2314C12.0018 13.224 11.9985 13.2164 11.9953 13.2088L10.7738 10.4431C10.684 10.2399 10.4658 10.1255 10.2476 10.1675C10.2476 10.1675 9.79582 8.87201 9.22001 8.53957C8.12365 7.90658 8.68989 7.90576 8.68989 7.90576Z" fill="rgb(0,0,0)" fill-rule="evenodd" />
		<path id="形状结合" d="M9.99294 7.63012Q10.3324 7.72974 10.6993 7.85243Q11.0273 7.9621 11.2487 8.05065Q11.5903 8.18725 11.7361 8.30739Q11.9617 8.49336 12.1538 8.89226Q12.2492 9.09018 12.4478 9.59589Q12.5206 9.78115 12.5599 9.87934Q12.8194 10.5287 13.5136 12.6287L12.9598 12.8118L13.4975 12.5856Q13.5833 12.7896 13.5833 13.0118Q13.5833 13.2363 13.4957 13.4421Q13.4115 13.6401 13.2584 13.7923Q13.1057 13.9441 12.9074 14.0275Q12.702 14.1139 12.4782 14.1139Q12.17 14.1139 11.9069 13.9553Q11.6516 13.8014 11.5085 13.5406L12.0198 13.2599L12.2362 13.8016L11.712 14.011L11.4717 13.4671L12.0053 13.2314L11.4776 13.4799Q11.4663 13.456 11.4562 13.4315L11.9953 13.2088L11.4617 13.4445L10.2402 10.6788Q10.2552 10.7128 10.2882 10.7301Q10.3212 10.7474 10.3577 10.7403L9.86273 10.8355L9.69676 10.3596Q9.59661 10.0724 9.42923 9.74158Q9.2891 9.46466 9.15305 9.2791Q9.02005 9.09769 8.92835 9.04475Q8.5014 8.79825 8.28929 8.61141Q7.94219 8.30567 7.96133 7.95378Q7.96949 7.8037 8.04292 7.67321Q8.10392 7.56478 8.202 7.48562Q8.3143 7.39496 8.46188 7.35388Q8.57408 7.32265 8.68879 7.32243L8.68904 7.32243L8.76113 7.32233L9.98147 7.62675L9.99294 7.63012ZM9.66444 8.74958L9.82869 8.18985L9.6875 8.75583L8.54869 8.47175L8.68989 7.90576L8.69073 8.48909L8.69097 8.48909Q8.7345 8.48901 8.77475 8.47781Q8.85947 8.45422 8.93479 8.39342Q9.01091 8.33198 9.05969 8.24529Q9.11966 8.1387 9.12627 8.01714Q9.13496 7.85738 9.05773 7.74015Q9.04774 7.72498 9.04102 7.71766Q9.04672 7.72387 9.06044 7.73596Q9.18536 7.84599 9.51168 8.03439Q10.022 8.32901 10.4702 9.21483Q10.6726 9.6149 10.7984 9.97544L10.2476 10.1675L10.1374 9.59467Q10.5013 9.52471 10.8295 9.69661Q11.1577 9.86852 11.3074 10.2074L12.5318 12.9795L12.5345 12.986Q12.5338 12.9845 12.5331 12.983L12.5361 12.9893L12.5518 13.0249L12.0182 13.2606L11.8018 12.7189L12.2828 12.5267L12.5312 12.9792Q12.5136 12.9472 12.4782 12.9472Q12.4537 12.9472 12.4359 12.9649Q12.4166 12.9841 12.4166 13.0118Q12.4166 13.025 12.4221 13.038L12.4131 13.0168L12.4059 12.9949Q11.7229 10.9287 11.4765 10.3123Q11.436 10.211 11.362 10.0225Q11.0647 9.26594 10.994 9.20762Q11.0093 9.22021 11.0155 9.22391Q11.003 9.21654 10.9794 9.20498Q10.9175 9.17467 10.8155 9.13391Q10.6254 9.05786 10.3293 8.95887Q9.98307 8.84308 9.66444 8.74958Z" fill="rgb(151,151,151)" fill-opacity="0" fill-rule="nonzero" />
	</g>
</svg>
