<?xml version="1.0" encoding="UTF-8"?>
<svg width="16px" height="16px" viewBox="0 0 16 16" version="1.1" xmlns="http://www.w3.org/2000/svg" xmlns:xlink="http://www.w3.org/1999/xlink">
    <title>ic_run</title>
    <g id="ic_run" stroke="none" stroke-width="1" fill="none" fill-rule="evenodd">
        <g id="编组-13" fill="#FFFFFF" transform="translate(2.290000, 2.735343)">
            <path d="M4.83565499,6.66478664 L4.85412244,6.67837309 L5.0158734,6.81033295 L5.03413897,6.82413048 L5.29824847,7.01018642 C4.20422981,7.99827495 3.6040181,8.54370781 3.49761335,8.64648501 C3.308244,8.82939836 2.98682601,8.80525537 2.90151927,8.75943949 C2.81621253,8.71362362 0.253840053,7.57422169 0.253840053,7.57422169 C0.253840053,7.57422169 -0.0888166215,7.40208133 0.0221003552,7.08341441 C0.0868019249,6.89752538 0.228126969,6.8057197 0.446075488,6.80799739 L0.544173229,6.81473375 L2.86056243,7.41024933 L4.27496224,5.63712203 C4.31000538,6.02629208 4.50803674,6.4163233 4.83565499,6.66478664 Z M8.89397496,4.2984834 C9.91217207,4.38413773 10.4938645,4.43364102 10.6390523,4.44699326 C10.8568339,4.46702162 11.0176071,4.67234293 11.0176071,4.86512845 C11.0176071,5.05791397 10.8713546,5.29205677 10.6681769,5.29205677 C10.5792866,5.29205677 10.2045038,5.30871293 9.80297197,5.32745112 L9.45829523,5.34368239 C9.06263283,5.36242058 8.71426247,5.37907674 8.67232771,5.37907674 C8.57647685,5.37907674 8.28255789,5.42321633 8.12953723,5.19593155 C8.07286291,5.111752 7.9750101,4.96924485 7.83597882,4.76841008 L7.80537632,4.72565831 L7.80537632,4.72565831 L7.86101221,4.63556699 C7.8700647,4.62071448 7.87900712,4.60594317 7.88783947,4.59125286 L7.9395128,4.50408115 L7.98854475,4.41884278 C8.22673471,3.99811474 8.36618676,3.64927442 8.40704582,3.3664767 C8.54020454,3.62152675 8.7032439,3.93218558 8.89397496,4.2984834 Z" id="形状结合" opacity="0.699999988"></path>
            <path d="M5.39740487,3.35484551 L5.38903012,3.35664348 L4.93615859,3.39778816 L4.08617218,4.27084741 L3.75947145,4.60288861 L3.66643259,4.69574547 C3.66224993,4.69986504 3.65828272,4.70376001 3.65453094,4.70743038 C3.44818315,4.90930054 3.17371269,4.93283482 3.01372627,4.80706542 C2.85373986,4.68129602 2.82778274,4.36325036 2.93541594,4.21174863 L2.99319014,4.13349968 L3.27905361,3.75690796 L3.69181442,3.2180905 L4.13644397,2.64090313 L4.23709972,2.51159755 C4.32037731,2.40630577 4.40509692,2.31559741 4.5416193,2.28754364 L4.71900248,2.25212455 L5.2365865,2.15125102 L5.67865018,2.06684722 L5.98507821,2.00978219 L6.15635244,1.97893994 L6.23250325,1.96548782 L6.30547072,1.95153248 L6.37235762,1.9377941 L6.51932769,1.9063748 L6.57255893,1.89576873 L6.59846802,1.89103672 L6.59846802,1.89103672 L6.6494784,1.88290306 C6.80162028,1.86138884 6.95011653,1.86721124 7.2126301,1.93698186 C7.69390497,2.06489466 8.19013238,2.59803053 8.10445012,3.29965699 C8.08475305,3.46095043 8.02239026,3.65584978 7.91736174,3.88435503 L7.88457322,3.95391479 L7.84922475,4.0254909 C7.84312,4.03758828 7.8369086,4.04976967 7.83059053,4.06203508 L7.79140215,4.13663572 L7.77084797,4.17469218 L7.77084797,4.17469218 L7.72781967,4.25231735 C7.72043496,4.26542291 7.71294359,4.27861248 7.70534555,4.29188607 L7.65847733,4.37253577 C7.65045263,4.38614542 7.64232127,4.39983908 7.63408324,4.41361676 L7.58337511,4.49729099 C7.57471043,4.51140473 7.56593908,4.52560248 7.55706107,4.53988424 L7.50251302,4.62658301 L7.44540504,4.71529813 C7.43567371,4.73025201 7.42583572,4.74528991 7.41589106,4.76041182 L7.35494316,4.85215148 L7.29143531,4.94590748 L7.22536752,5.04167985 L7.15673979,5.13946856 L7.08555211,5.23927363 L7.01180449,5.34109506 L6.93549692,5.44493284 L6.85662942,5.55078697 L8.59323965,7.36577019 C8.63640343,7.42410692 8.67183819,7.47753416 8.69954393,7.5260519 C8.72724967,7.57456965 8.75190732,7.62637505 8.77351689,7.6814681 L9.44370821,10.7475065 C9.46074686,10.8815021 9.42856766,11.072096 9.24621887,11.1820861 C9.03744387,11.3080162 8.76616157,11.1473963 8.67413578,10.9977878 L7.6245424,8.25738584 L5.21100203,6.57100491 L5.04344442,6.43439205 C4.60441099,6.119054 4.47275943,5.5083271 4.66158863,5.12566691 L4.73047739,4.99319272 L4.79364171,4.86992134 L4.85108158,4.75585277 L4.91876338,4.61807682 L4.96284621,4.52548146 L4.98905451,4.46886389 L5.0235966,4.39160654 L5.04344442,4.34521431 L5.07976417,4.25645582 L5.11855023,4.15770998 L5.14577777,4.08633089 L5.18867433,3.97093947 L5.2186422,3.88846333 L5.26564927,3.75642633 L5.32128726,3.59964285 C5.62105056,3.54260567 5.81930093,3.5052896 5.91603837,3.48769462 C6.06465922,3.4606629 6.0732567,3.30882832 5.94029736,3.31910931 C5.85165781,3.3259633 5.66790206,3.33847469 5.38903012,3.35664348 L5.40305892,3.35550061 L5.39740487,3.35484551 Z" id="形状结合" fill-rule="nonzero"></path>
            <circle id="椭圆形" cx="7.87033942" cy="0.878462739" r="1"></circle>
        </g>
    </g>
</svg>