<svg viewBox="0 0 24 24" xmlns="http://www.w3.org/2000/svg" xmlns:xlink="http://www.w3.org/1999/xlink" width="24.000000" height="24.000000" fill="none">
	<rect id="轮椅锻炼时长" width="24.000000" height="24.000000" x="0.000000" y="0.000000" fill="rgb(255,255,255)" fill-opacity="0" />
	<g id="编组 41">
		<path id="矢量 30" d="M13.7681 3L13.772 3C14.653 3 15.3672 3.71411 15.3672 4.5951C15.3672 5.47608 14.653 6.19032 13.772 6.19032L13.7681 6.19032C12.8871 6.19032 12.173 5.47608 12.173 4.5951C12.173 3.71411 12.8871 3 13.7681 3ZM11.2998 5.06177C11.6025 5.25062 11.6929 5.79114 12.0571 6.15504C12.4213 6.51905 12.661 6.69496 13.1738 6.84352C13.6867 6.9922 14.2016 6.89674 14.4036 6.83082C14.6057 6.76478 14.7222 6.72413 14.8855 6.62769C14.9362 6.59986 15.0329 6.62769 15.0862 6.67701C15.1263 6.71406 15.1536 6.748 15.1536 6.82696C15.1536 6.85283 15.1507 6.88354 15.1443 6.92079C15.1184 7.07154 14.8855 7.86439 14.687 8.36073C14.5244 8.76761 14.0122 9.92295 13.6529 10.6924L14.419 10.7181C14.4334 10.7176 14.448 10.7173 14.4625 10.7173C14.503 10.7173 14.5433 10.7194 14.5835 10.7236L14.6931 10.7273C15.2548 10.7461 15.7003 11.2069 15.7003 11.7688L15.7003 11.7941C15.7003 11.8265 15.699 11.8586 15.6964 11.8903C15.6963 11.9361 15.6935 11.9824 15.6879 12.029C15.6848 12.0541 15.6809 12.0792 15.6763 12.1041L14.6169 17.7454L15.4381 17.7454C15.4387 17.7404 15.4393 17.7355 15.44 17.7305C15.4447 17.7355 15.4495 17.7405 15.4542 17.7454L18.4616 17.7454C18.6173 17.3793 18.6972 16.9254 18.6972 16.4194C18.6972 15.7077 18.539 14.893 18.2108 14.0752C17.6719 12.7323 16.809 11.7161 15.9647 11.3079L15.9635 11.3036L15.9552 11.2779C15.7333 10.6742 15.2387 10.4893 14.8859 10.4372C14.8015 10.4247 14.7063 10.416 14.6087 10.4102L14.4868 10.4047L14.4674 10.3985C14.3935 10.3826 14.3461 10.3447 14.3461 10.3011C14.3461 10.2737 14.3649 10.244 14.4076 10.2161L14.4269 10.2077C15.0027 9.97349 15.641 10.0037 16.2734 10.2499C16.4858 9.11019 16.5683 7.98834 16.5683 7.59431C16.5683 7.50644 16.5642 7.45477 16.5565 7.44715C16.5261 7.41684 16.294 7.42543 16.0224 7.43548C15.8708 7.44109 15.7068 7.44715 15.5589 7.44715C15.5506 7.44801 15.4909 7.4159 15.4909 7.36879C15.4909 7.24562 15.679 6.93995 15.7583 6.52528C15.8272 6.16529 15.8272 5.86329 15.8843 5.7439C15.9856 5.65394 17.7221 6.05531 18.0286 6.31666C18.1613 6.42908 18.2386 6.66078 18.2386 6.89164C18.2386 6.96511 18.2307 7.03849 18.2144 7.10792L18.2156 7.11256C18.2156 7.11256 17.7607 9.26581 17.1561 10.7366C18.0372 11.3689 18.8389 12.4023 19.3563 13.6918C19.7238 14.6074 19.8991 15.5304 19.8991 16.3722C19.8991 17.9261 19.3018 19.203 18.2143 19.6453C17.1157 20.0921 15.7896 19.5766 14.7115 18.4351L9.65522 18.4351C8.68039 20.0454 7.31357 20.9433 6.08692 20.5921C4.77998 20.2178 4.00001 18.5305 4.00001 16.4365C4.00001 15.7125 4.09324 14.9399 4.29016 14.1562C4.79452 12.1484 5.85366 10.5678 7.02025 9.86522L5.49524 7.0713C5.47847 7.04061 5.46337 7.009 5.44998 6.97662L5.44287 6.97584L5.38782 6.81043C5.34717 6.68842 5.32786 6.56444 5.32786 6.44253C5.32786 5.95523 5.63642 5.50111 6.12415 5.33863C6.1908 5.31641 6.25928 5.3003 6.32886 5.29053L9.24028 4.87863C9.24302 4.8752 9.24578 4.87321 9.24854 4.87269C9.34742 4.85376 9.76405 4.79346 9.99244 4.77857C10.566 4.73938 10.9971 4.87293 11.2998 5.06177ZM9.67534 9.99806C9.73979 9.6167 9.79608 9.28125 9.84412 8.99184L9.88477 8.74647C9.92799 8.48414 9.96302 8.26796 9.98988 8.09779L9.99161 8.10175L10.183 6.99269L10.2448 6.61451C10.2118 6.64346 10.1794 6.67537 10.1475 6.71024C10.1144 6.7466 10.0819 6.78619 10.0501 6.82899L9.98841 6.91688C9.919 7.02188 9.8363 7.1682 9.74006 7.35576C9.72536 7.38445 9.71035 7.41409 9.69502 7.44471L9.69508 7.44471L9.69247 7.44981C9.69163 7.45148 9.69079 7.45316 9.68995 7.45484C9.54798 7.43336 9.34071 7.40834 9.07117 7.3766L9.0712 7.37592L7.62342 7.21628L8.1847 9.28676C8.20135 9.34822 8.20993 9.41032 8.21095 9.4718C8.43053 9.45993 8.64868 9.4832 8.86255 9.54445C9.1622 9.63028 9.43415 9.78512 9.67534 9.99806ZM9.99934 8.11945L10 8.12099L10.0003 8.11932L9.99934 8.11945ZM10.9487 13.5844C10.9492 13.6228 10.9495 13.6613 10.9495 13.7C10.9495 14.4239 10.8562 15.1965 10.6593 15.9803C10.4995 16.6163 10.2841 17.2094 10.0272 17.7454L11.9673 17.7454L11.5939 13.4747L10.9487 13.5844ZM16.336 18.4351C16.8046 18.6858 17.2713 18.7524 17.6778 18.5871C17.7742 18.5479 17.8641 18.4969 17.9472 18.4351L16.336 18.4351ZM5.34143 14.505C5.16606 15.2012 5.08286 15.8801 5.08286 16.4946C5.08286 17.8638 5.49597 18.9134 6.22278 19.1221C7.27576 19.4246 8.58838 17.8478 9.15467 15.6003C9.33004 14.9041 9.41324 14.2252 9.41324 13.6108C9.41324 12.2415 9.00013 11.192 8.27332 10.9833C7.22034 10.6808 5.90772 12.2576 5.34143 14.505Z" fill="rgb(255,255,255)" fill-rule="evenodd" />
	</g>
</svg>
