<?xml version="1.0" encoding="UTF-8"?>
<svg width="16px" height="16px" viewBox="0 0 16 16" version="1.1" xmlns="http://www.w3.org/2000/svg" xmlns:xlink="http://www.w3.org/1999/xlink">
    <title>ic_kcal</title>
    <defs>
        <filter id="filter-1">
            <feColorMatrix in="SourceGraphic" type="matrix" values="0 0 0 0 1.000000 0 0 0 0 1.000000 0 0 0 0 1.000000 0 0 0 1.000000 0"></feColorMatrix>
        </filter>
    </defs>
    <g id="ic_kcal" stroke="none" stroke-width="1" fill="none" fill-rule="evenodd">
        <g filter="url(#filter-1)" id="编组-2">
            <g>
                <rect id="矩形" fill="#FF062A" opacity="0" x="0" y="0" width="17" height="17"></rect>
                <path d="M7.57832875,3.29873193 C7.55649567,3.41369159 7.52576942,3.53345993 7.48590929,3.65661446 C7.34221935,4.10056849 7.10427636,4.51967859 6.77031983,4.89965195 C6.63199232,5.05704001 6.47866544,5.20550131 6.31045955,5.34442952 L6.19503813,5.44085395 C4.54569495,6.83339136 3.94987247,7.9866827 4.13135161,9.5639436 C4.33595136,11.2472698 5.43018555,12.6271932 6.95808359,13.1973705 L7.0343525,13.2243366 C7.05883142,13.23283 7.08251381,13.2408796 7.10584227,13.2486403 C7.28654391,13.3087545 7.46342801,13.1480226 7.42083906,12.9624075 C7.40447354,12.8910818 7.39612578,12.8176279 7.39612578,12.7429075 C7.39612578,12.2036121 7.83331107,11.7664268 8.37260647,11.7664268 C8.91190186,11.7664268 9.34908715,12.2036121 9.34908715,12.7429075 C9.34908715,12.8254171 9.33890731,12.9062155 9.31899115,12.9841882 L9.30822376,13.0229339 C9.25349812,13.2049641 9.41861911,13.3769438 9.60272459,13.3296676 C9.72014831,13.2995145 9.84094565,13.2642268 9.96584057,13.2234529 L9.98787085,13.2150635 C9.99506233,13.2119194 10.0020939,13.208432 10.0089416,13.2046148 L10.0198364,13.1973107 C10.0225952,13.1959102 10.0287632,13.1930981 10.0379819,13.1891587 L10.1356671,13.1494487 C10.2625157,13.0982567 10.3625121,13.0547369 10.478749,12.9975055 C10.8302162,12.8244544 11.164198,12.6016622 11.4789321,12.3047925 C11.62576,12.1662986 11.7645537,12.0147089 11.8943001,11.8491589 C12.5677577,11.0282173 12.8602646,10.1525108 12.8876689,9.08446857 C12.9156475,7.95688859 12.4319651,6.7673908 11.6207044,5.93165379 C11.4866266,5.79353083 11.2528949,5.85768551 11.2081161,6.04490103 L11.1924349,6.10917993 C11.1185303,6.40620456 11.0344886,6.66201594 10.9412925,6.87648721 L10.9287888,6.90452951 L10.9268392,6.89573135 C10.5968561,5.39263497 9.32049499,3.7855619 7.92263707,3.12364639 C7.77822545,3.0552644 7.60814187,3.14175425 7.57832875,3.29873193 Z" id="路径" fill="#FFFFFF" fill-rule="nonzero"></path>
            </g>
        </g>
    </g>
</svg>