<svg viewBox="0 0 11.0795 16.2797" xmlns="http://www.w3.org/2000/svg" xmlns:xlink="http://www.w3.org/1999/xlink" width="11.079498" height="16.279724" fill="none" customFrame="#000000">
	<path id="轮椅推动次数" d="M9.94366 1.34357C9.94366 2.08561 9.35197 2.68714 8.6221 2.68714C7.89222 2.68714 7.30054 2.08561 7.30054 1.34357C7.30054 0.601537 7.89222 0 8.6221 0C9.35197 0 9.94366 0.601537 9.94366 1.34357ZM6.78143 7.46901L7.83383 5.45077C7.83383 5.45077 8.36414 4.3006 8.09899 3.62955C7.83383 2.95851 7.45787 2.80142 7.07989 2.66092C6.70192 2.52043 5.98905 2.5551 5.98905 2.5551C5.98905 2.5551 3.54734 2.95979 2.19567 3.50438C2.14664 3.527 2.099 3.54827 2.05311 3.5682C1.70017 3.72144 1.43022 4.0392 1.3925 4.42212C1.36289 4.72282 1.3331 5.07153 1.32507 5.32559C1.31322 5.70075 1.2404 7.30474 1.2404 7.30474L1.24558 7.54994C1.24871 7.69793 1.27121 7.84488 1.3125 7.98702L1.31522 7.98663C1.37859 8.20994 1.58212 8.37335 1.82342 8.37335C2.11537 8.37335 2.35205 8.13413 2.35205 7.83905L2.35205 7.83881L2.3723 7.54425L2.42996 7.16064L2.80289 5.04948C2.80289 5.04948 3.5398 4.94417 4.13068 4.87079L4.15373 4.86792L4.15375 4.86792C4.73402 4.79585 5.2029 4.73761 5.28341 4.78073C5.36498 4.82442 5.0156 5.01171 4.70181 5.10795C4.38801 5.2042 4.19024 5.27972 4.19024 5.27972C4.19024 5.27972 3.64037 6.83016 3.50495 7.23279C3.32115 7.32035 3.1859 7.49866 3.16306 7.71601C3.12814 8.04823 3.36907 8.34585 3.7012 8.38076C3.75639 8.38656 3.81062 8.38474 3.86286 8.37615L3.86455 8.37668C4.21188 8.2998 4.57732 8.2768 4.95057 8.31603C6.81046 8.51152 8.15968 10.1782 7.96414 12.0386C7.7686 13.8991 6.10234 15.2488 4.24245 15.0533C2.38257 14.8578 1.03334 13.1912 1.22889 11.3307C1.32422 10.4237 1.76911 9.63809 2.41558 9.09372L2.41526 9.09333C2.54113 8.99584 2.62856 8.8491 2.64652 8.67824C2.66285 8.52285 2.61884 8.37504 2.53337 8.25813C2.38305 8.52265 2.09767 8.70121 1.77036 8.70121C1.57556 8.70121 1.39561 8.63796 1.25015 8.53099C0.583656 9.23795 0.134973 10.1611 0.025562 11.2021C-0.239816 13.727 1.59127 15.9889 4.1154 16.2542C6.63954 16.5195 8.90088 14.6877 9.16626 12.1628C9.1916 11.9217 9.19783 11.6831 9.18616 11.4483L9.75747 14.5252C9.76125 14.5642 9.76841 14.6025 9.77871 14.6396L9.78266 14.6608L9.78485 14.6604C9.8554 14.886 10.0428 15.0663 10.2892 15.1141C10.6482 15.1839 10.9964 14.9463 11.0669 14.5835C11.0795 14.5189 11.0824 14.4546 11.0767 14.3923C11.0764 14.2486 11.0739 13.0772 11.0527 12.6335C11.007 11.6747 10.9159 10.9423 10.8503 10.5048C10.7154 9.60469 10.4079 8.92196 10.0177 8.59511C9.71957 8.34536 9.30721 8.19134 8.72956 7.96276C8.34171 7.80928 7.71747 7.65032 7.31264 7.56909C7.21319 7.54913 7.01821 7.51078 6.78143 7.46901Z" fill="rgb(0,0,0)" fill-rule="evenodd" />
</svg>
